<?xml version="1.0" encoding="UTF-8" standalone="no"?>
<!-- Created with Inkscape (http://www.inkscape.org/) -->

<svg
   width="210mm"
   height="297mm"
   viewBox="0 0 210 297"
   version="1.1"
   id="svg8344"
   xml:space="preserve"
   sodipodi:docname="TestBody.svg"
   inkscape:version="1.2.1 (9c6d41e410, 2022-07-14)"
   xmlns:inkscape="http://www.inkscape.org/namespaces/inkscape"
   xmlns:sodipodi="http://sodipodi.sourceforge.net/DTD/sodipodi-0.dtd"
   xmlns="http://www.w3.org/2000/svg"
   xmlns:svg="http://www.w3.org/2000/svg"><sodipodi:namedview
     id="namedview8346"
     pagecolor="#ffffff"
     bordercolor="#000000"
     borderopacity="0.25"
     inkscape:showpageshadow="2"
     inkscape:pageopacity="0.0"
     inkscape:pagecheckerboard="0"
     inkscape:deskcolor="#d1d1d1"
     inkscape:document-units="mm"
     showgrid="false"
     inkscape:zoom="1.3576599"
     inkscape:cx="-53.768988"
     inkscape:cy="301.62192"
     inkscape:window-width="2880"
     inkscape:window-height="1550"
     inkscape:window-x="2873"
     inkscape:window-y="-7"
     inkscape:window-maximized="1"
     inkscape:current-layer="svg8344" /><defs
     id="defs8341" /><g
     inkscape:label="Layer 1"
     inkscape:groupmode="layer"
     id="layer1" /><path
     style="display:inline;fill:#ff0000;stroke-width:0.736561"
     d="m 236.97721,174.17504 c -5.95174,-1.49471 -12.20351,-5.75587 -14.24948,-9.71234 -1.70633,-3.29968 -4.63684,-19.07627 -5.1741,-27.85508 -1.06876,-17.46367 4.36111,-29.50387 15.84463,-35.13392 12.82248,-6.286492 29.08726,3.15165 32.40882,18.80621 1.84016,8.67272 0.54121,29.69181 -2.4483,39.61753 -2.06953,6.87122 -6.76908,11.80805 -12.92788,13.58062 -3.9548,1.13823 -10.37275,1.47071 -13.45369,0.69698 z m 12.7452,-14.15706 c 3.52999,-1.78007 4.54229,-3.71579 2.40191,-4.59291 -2.47148,-1.01281 -14.49637,-1.30815 -17.71363,-0.43506 -4.42211,1.20007 -4.15872,2.94641 0.74475,4.93788 5.2788,2.1439 10.43095,2.17576 14.56697,0.0901 z m -1.17665,-11.84606 c 1.22401,-0.89501 1.2672,-1.41511 0.48879,-5.88506 -0.46962,-2.69681 -1.06355,-5.48667 -1.31983,-6.1997 -0.37422,-1.04119 -0.10713,-0.97015 1.35673,0.36085 2.362,2.14764 6.91447,2.19344 10.91207,0.10977 3.41832,-1.78172 3.75197,-3.35489 1.31166,-6.1845 -2.79478,-3.24063 -12.48809,-4.22711 -13.57985,-1.38202 -0.59335,1.54624 -1.57367,1.20577 -1.83671,-0.6379 -0.47401,-3.32242 -5.95844,-2.51384 -7.54493,1.11236 l -1.04073,2.37878 -0.0601,-2.02554 c -0.0596,-2.00885 -0.10211,-2.02554 -5.1595,-2.02554 -4.41146,0 -5.40515,0.25725 -7.36562,1.90688 -3.04735,2.56417 -3.00219,5.0261 0.12763,6.95795 3.65255,2.2545 5.71747,2.53698 9.25265,1.26573 2.9819,-1.07228 3.19158,-1.06753 2.81703,0.0638 -2.12806,6.42779 -2.21972,7.31776 -0.95278,9.25135 1.14688,1.75036 1.68311,1.91456 6.25264,1.91456 3.00179,0 5.53446,-0.39215 6.34083,-0.98178 z"
     id="FrontHead"
     transform="scale(0.26458333)"
     inkscape:label="Front Head" /><path
     style="display:inline;fill:#ff0000;stroke-width:0.368281"
     d="m 238.89441,207.36195 c -3.14042,-2.13115 -3.7269,-2.2342 -16.85407,-2.96149 -11.02584,-0.61087 -14.46441,-0.97418 -17.50863,-1.84995 -3.28285,-0.94442 -4.57435,-2.75821 -1.96398,-2.75821 3.34105,0 14.87714,-6.01073 17.96458,-9.36021 1.78609,-1.93768 1.80476,-2.05052 2.07022,-12.51577 0.10739,-4.23344 0.26333,-7.76526 0.34655,-7.84847 0.0832,-0.0832 1.3703,0.63134 2.86021,1.58789 8.65745,5.55832 14.64166,6.60388 24.50451,4.28143 5.36833,-1.26411 6.25746,-1.63505 8.58968,-3.58356 1.18294,-0.98832 1.66611,-1.20967 1.85782,-0.8511 0.14251,0.26653 0.36871,3.55053 0.50268,7.29779 0.13396,3.74725 0.41677,7.69323 0.62845,8.76883 0.6092,3.09546 1.71682,4.03654 8.91327,7.57311 8.36537,4.11101 10.64448,4.98615 15.53257,5.96424 l 1.10485,0.22108 -0.86524,0.7021 c -2.19568,1.78168 -3.79935,1.9642 -17.73294,2.0183 -16.4803,0.064 -20.14129,0.55645 -24.08171,3.23945 -1.88809,1.28559 -4.04389,1.31297 -5.86882,0.0745 z"
     id="FrontNeck"
     transform="scale(0.26458333)"
     inkscape:label="Front Neck" /><path
     style="display:inline;fill:#ff0000;stroke-width:0.368281"
     d="m 156.74949,248.7276 c -0.68852,-3.44259 0.008,-14.45759 1.24889,-19.73686 2.17273,-9.24729 7.76517,-16.39267 16.63417,-21.25326 5.10242,-2.79635 14.56554,-5.05519 21.47694,-5.12654 3.42081,-0.0353 3.86353,0.0466 6.22311,1.1512 l 2.5403,1.18923 -3.92179,2.59014 c -2.15699,1.42458 -5.50891,4.10743 -7.44871,5.9619 -5.8368,5.58002 -8.42714,9.43406 -12.6221,18.77984 -2.04084,4.54673 -5.174,7.1542 -14.60155,12.15172 -5.58102,2.95848 -8.08937,4.45862 -8.46123,5.06031 -0.42843,0.69321 -0.83418,0.40157 -1.06803,-0.76768 z"
     id="FrontShoulderRight"
     transform="scale(0.26458333)"
     inkscape:label="Front Shoulder Right" /><path
     style="display:inline;fill:#ff0000;stroke-width:0.368281"
     d="m 325.02553,247.84704 c -1.0017,-0.71218 -3.6528,-2.22935 -5.89132,-3.3715 -10.34627,-5.27888 -14.5682,-9.46873 -17.33585,-17.20414 -2.05157,-5.73402 -10.93275,-15.5461 -17.6137,-19.45993 -0.94233,-0.55204 -1.71333,-1.14892 -1.71333,-1.3264 0,-0.17748 2.00765,-1.26521 4.46144,-2.41717 l 4.46145,-2.09447 5.39006,1.52257 c 15.03876,4.24812 21.64526,8.39225 25.56196,16.03452 3.41239,6.6583 5.35519,14.39028 5.69256,22.65546 0.21325,5.22454 0.0297,6.95594 -0.73749,6.95594 -0.24998,0 -1.27408,-0.5827 -2.27578,-1.29488 z"
     id="FrontShoulderLeft"
     transform="scale(0.26458333)"
     inkscape:label="Front Shoulder Left" /><path
     style="display:inline;fill:#ff0000;stroke-width:0.368281"
     d="m 157.99244,303.27166 c -1.51916,-0.40708 -4.452,-1.56492 -6.51743,-2.57298 -4.83469,-2.35963 -7.46703,-4.80864 -8.42079,-7.83431 -0.62972,-1.99771 -0.63037,-2.22139 -0.0148,-5.0859 1.78604,-8.31144 8.43826,-24.95181 11.26983,-28.19121 0.72857,-0.83351 1.08302,-1.73977 1.27199,-3.25219 0.22456,-1.79736 0.47211,-2.30063 1.734,-3.52525 0.80962,-0.78571 3.48908,-2.62218 5.95435,-4.08105 10.55601,-6.24669 12.42326,-7.39727 14.57208,-8.97914 l 2.26635,-1.66839 -0.10143,19.61708 -0.10143,19.61707 -6.35334,12.75308 c -3.49434,7.01419 -6.6247,12.97828 -6.95635,13.25353 -0.98661,0.81881 -5.45713,0.79265 -8.60301,-0.0503 z"
     id="FrontArmRight"
     transform="scale(0.26458333)"
     inkscape:label="Front Arm Right" /><path
     style="display:inline;fill:#ff0000;stroke-width:0.368281"
     d="m 318.32583,303.95204 c -1.02304,-0.49523 -4.05206,-5.89237 -10.0388,-17.88725 l -4.8237,-9.66464 v -19.73322 -19.73321 l 3.40659,2.37268 c 4.16368,2.89998 9.92843,6.45925 14.76229,9.11452 1.99199,1.0942 4.15821,2.58321 4.81382,3.30889 0.68827,0.76184 1.77237,2.81722 2.56532,4.86372 0.75532,1.94937 1.70031,3.96002 2.09998,4.46813 2.55155,3.24377 8.83899,19.47706 10.08224,26.03095 1.11896,5.89867 0.60053,7.39879 -3.75266,10.85869 -5.41318,4.30237 -15.85314,7.57975 -19.11508,6.00074 z"
     id="FrontArmLeft"
     transform="scale(0.26458333)"
     inkscape:label="Front Arm Left" /><path
     style="display:inline;fill:#ff0000;stroke-width:0.368281"
     d="m 236.80451,144.4376 c 0,-0.46704 0.42149,-1.41996 0.93663,-2.11762 1.18261,-1.60159 1.85962,-4.00839 2.37618,-8.44745 0.4175,-3.58773 1.21917,-5.61605 2.30211,-5.8246 0.93312,-0.1797 1.71045,1.74544 2.31394,5.73071 0.61604,4.06812 1.23849,6.31844 2.35082,8.49877 0.82877,1.62454 1.00464,3.00934 0.38218,3.00934 -0.21262,0 -0.91695,-0.2779 -1.5652,-0.61756 -1.68248,-0.88157 -6.18535,-0.89852 -7.15136,-0.0269 -1.02389,0.92382 -1.9453,0.82688 -1.9453,-0.20466 z"
     id="FrontNose"
     transform="scale(0.26458333)"
     inkscape:label="Front Nose" /><path
     style="display:inline;fill:#ff0000;stroke-width:0.368281"
     d="m 228.88648,135.93269 c -2.41354,-0.59333 -3.39375,-1.15188 -3.69673,-2.10651 -0.3436,-1.08258 0.79153,-2.529 2.78355,-3.54687 3.67465,-1.87765 8.09465,-0.20503 8.09465,3.06318 0,1.44626 -0.84548,2.22163 -2.95168,2.70692 -1.96872,0.45361 -1.90236,0.45544 -4.22979,-0.11672 z"
     id="FrontEyeRight"
     transform="scale(0.26458333)"
     inkscape:label="Front Eye Right" /><path
     style="display:inline;fill:#ff0000;stroke-width:0.368281"
     d="m 251.9922,135.83932 c -1.62962,-0.8033 -3.4718,-2.96285 -3.33146,-3.90539 0.32949,-2.21284 7.61734,-3.25081 10.14855,-1.4454 0.73889,0.52702 1.19691,1.16879 1.19691,1.67709 0,1.12295 -2.05103,3.02431 -4.00669,3.71431 -2.0018,0.70627 -2.50243,0.7012 -4.00731,-0.0406 z"
     id="FrontEyeLeft"
     transform="scale(0.26458333)"
     inkscape:label="Front Eye Left" /><path
     style="display:inline;fill:#ff0000;stroke-width:0.368281"
     d="m 239.38248,158.3289 c -0.50639,-0.0917 -1.49589,-0.2608 -2.19891,-0.37565 -1.1599,-0.1895 -1.21103,-0.24672 -0.55242,-0.61826 0.86133,-0.48589 10.50433,-0.58585 12.14249,-0.12586 l 1.10484,0.31023 -0.89416,0.34098 c -0.9953,0.37955 -8.1628,0.72932 -9.60184,0.46856 z"
     id="FrontMouth"
     transform="scale(0.26458333)"
     inkscape:label="Front Mouth" /><path
     style="display:inline;fill:#ff0000;stroke-width:0.368281"
     d="m 267.37182,153.98959 c 0,-5.03765 1.72077,-12.16553 2.8829,-11.94172 2.38178,0.45869 1.67064,7.72114 -1.24288,12.69268 -0.51398,0.87704 -1.09325,1.59462 -1.28727,1.59462 -0.19401,0 -0.35275,-1.05551 -0.35275,-2.34558 z"
     id="FrontEarLeft"
     transform="scale(0.26458333)"
     inkscape:label="Front Ear Left" /><path
     style="fill:#ff0000;stroke-width:0.368281"
     d="m 214.15094,531.63859 c -4.14162,-1.47513 -9.03413,-4.52286 -16.03137,-9.98653 -5.50043,-4.29491 -8.39088,-6.24317 -9.26241,-6.24317 -1.04323,0 -3.04674,-2.03165 -4.25459,-4.31433 -4.53426,-8.56919 -7.57211,-27.04449 -6.9206,-42.08904 0.40895,-9.44351 1.27708,-15.39561 6.09665,-41.79987 4.14114,-22.68742 5.63193,-32.60681 6.96389,-46.33624 0.21258,-2.19117 0.52479,-4.23105 0.6938,-4.53306 0.55114,-0.98483 13.32088,11.37265 28.79687,27.8672 9.97866,10.63541 13.73192,15.31223 15.50471,19.31992 0.70437,1.59234 0.60369,2.71533 -0.4139,4.61671 -0.84801,1.58452 -1.03795,5.29419 -0.64882,12.67198 0.44366,8.41164 0.0122,19.7482 -1.19932,31.50789 -0.874,8.48386 -0.96106,9.0932 -4.99112,34.93389 -3.14256,20.15007 -3.51334,21.81733 -5.18882,23.33249 -1.98542,1.79543 -5.81961,2.23657 -9.14497,1.05216 z"
     id="FrontThighRight"
     transform="scale(0.26458333)"
     inkscape:label="Front Thigh Right" /><path
     style="fill:#ff0000;stroke-width:0.368281"
     d="m 126.32029,376.44233 c -5.39631,-1.90654 -12.15326,-6.28035 -12.15326,-7.86686 0,-0.30674 0.48803,-1.58028 1.08451,-2.83009 1.57476,-3.29963 4.43915,-13.0935 7.76702,-26.55688 3.14683,-12.73098 5.07721,-19.16561 6.23921,-20.79748 2.09542,-2.94276 8.81438,-3.0009 15.84484,-0.13711 5.01093,2.04116 12.30277,6.92892 13.92169,9.33181 0.69499,1.03154 0.82359,1.58319 0.64389,2.7621 -0.50325,3.30138 -8.98345,18.66453 -13.04908,23.64036 -2.13577,2.61391 -11.19668,15.91135 -13.87963,20.36919 -0.79239,1.3166 -1.60795,2.51558 -1.81234,2.6644 -0.65456,0.47657 -2.15043,0.28842 -4.60685,-0.57944 z"
     id="FrontForearmRight"
     transform="scale(0.26458333)"
     inkscape:label="Front Forearm Right" /><path
     style="fill:#ff0000;stroke-width:0.368281"
     d="m 353.61497,376.29084 c -0.41399,-0.35447 -2.67639,-3.4285 -5.02757,-6.83118 -2.35118,-3.40268 -5.65736,-7.96016 -7.34708,-10.12772 -3.60284,-4.62171 -7.57797,-10.66213 -7.57797,-11.51514 0,-0.32893 -0.32998,-0.89667 -0.73329,-1.26166 -1.00829,-0.91249 -3.47978,-5.23545 -6.68452,-11.69209 l -2.69436,-5.42835 2.20191,-2.24542 c 5.8338,-5.94908 15.28952,-10.53872 22.52563,-10.93356 3.16824,-0.17287 3.48868,-0.12253 5.05211,0.7937 3.0249,1.7727 3.6751,3.19524 5.94569,13.00817 3.29798,14.25302 6.31051,25.40103 8.68695,32.14651 0.60656,1.72172 1.3335,4.11576 1.61541,5.3201 l 0.51257,2.18971 -1.46632,1.39488 c -2.37091,2.2554 -10.37916,5.82654 -13.06593,5.82654 -0.65479,0 -1.52925,-0.29002 -1.94323,-0.64449 z"
     id="FrontForearmLeft"
     transform="scale(0.26458333)"
     inkscape:label="Front Forearm Left" /><path
     style="fill:#ff0000;stroke-width:0.368281"
     d="m 194.88212,659.86701 c -0.11824,-7.4163 -1.77146,-28.43356 -3.20831,-40.78709 -2.1456,-18.44695 -2.55167,-26.2384 -2.23608,-42.90471 0.13233,-6.98812 0.33775,-13.40975 0.45649,-14.27028 l 0.21589,-1.56459 1.89485,1.71295 c 3.0286,2.73787 5.29878,3.62629 9.26046,3.62402 4.71886,-0.003 8.46127,-1.40544 15.09951,-5.65962 3.49625,-2.24061 4.13,-2.34036 4.39207,-0.69132 0.83952,5.2825 2.14791,20.60422 2.30365,26.97656 0.22553,9.22794 -0.20935,12.7556 -2.45162,19.88716 -2.08481,6.63076 -3.35675,13.2749 -5.53447,28.91004 -2.11865,15.21105 -2.93518,22.3431 -2.94091,25.68758 l -0.004,2.30176 -4.51143,0.002 c -2.4813,0.001 -6.15427,0.24978 -8.16216,0.55242 -2.0079,0.3026 -3.84293,0.55021 -4.07786,0.55021 -0.29585,0 -0.44834,-1.33009 -0.49613,-4.3273 z"
     id="FrontLegRight"
     transform="scale(0.26458333)"
     inkscape:label="Front Leg Right" /><path
     style="fill:#ff0000;stroke-width:0.368281"
     d="m 285.78585,663.89357 c -3.0112,-0.97105 -7.75926,-1.24415 -12.06119,-0.69374 l -2.30176,0.29449 -0.007,-5.08214 c -0.004,-2.8522 -0.31576,-7.42528 -0.71077,-10.42222 -0.38712,-2.93704 -1.30143,-9.89755 -2.0318,-15.46779 -1.59886,-12.1939 -2.95044,-19.03165 -5.1685,-26.14794 -2.61265,-8.38223 -2.88536,-10.3537 -2.64901,-19.15059 0.25006,-9.30769 1.90301,-23.50408 3.26756,-28.0635 l 0.40796,-1.36314 1.14399,0.59128 c 0.62919,0.3252 2.00298,1.22569 3.05287,2.00108 4.79983,3.54492 9.19137,5.25236 13.56665,5.27474 2.61617,0.0134 3.23713,-0.12428 5.42988,-1.20376 1.72243,-0.84796 3.0052,-1.83198 4.21524,-3.23357 1.44155,-1.66974 1.78053,-1.90244 1.9798,-1.35909 0.69271,1.88875 1.15868,15.15096 0.96229,27.38795 -0.21688,13.51366 -0.29036,14.57373 -2.09101,30.16703 -1.41084,12.21756 -2.41757,23.1086 -3.14894,34.06596 -0.32448,4.86131 -0.70342,9.84155 -0.8421,11.06721 l -0.25213,2.22847 z"
     id="FrontLegLeft"
     transform="scale(0.26458333)"
     inkscape:label="Front Leg left" /><path
     style="fill:#ff0000;stroke-width:0.368281"
     d="m 215.47491,154.55391 c -0.80824,-1.58429 -2.05092,-6.26845 -2.41993,-9.12176 -0.17917,-1.38532 -0.0791,-2.25765 0.38014,-3.31453 l 0.62331,-1.43438 0.73477,1.62924 c 1.55513,3.4483 2.87317,13.65441 1.76336,13.65441 -0.19844,0 -0.68518,-0.63584 -1.08165,-1.41298 z"
     id="FrontEarRight"
     transform="scale(0.26458333)"
     inkscape:label="Front Ear Right" /><g
     id="FrontAbdomen"
     inkscape:label="Front Abdomen"><path
       style="display:inline;fill:#ff0000;stroke-width:0.736561"
       d="m 231.72228,370.82527 c -16.23921,-1.16118 -30.44019,-7.30186 -34.51474,-14.92461 -1.53852,-2.87828 -1.63087,-3.81213 -1.36159,-13.76786 0.50271,-18.58545 0.46508,-26.78286 -0.13911,-30.31142 l -0.5868,-3.42693 4.3149,1.74286 c 10.50188,4.2419 21.51164,5.1172 36.34394,2.88942 6.68189,-1.0036 8.08051,-1.00072 13.80568,0.0285 3.5038,0.62989 9.85757,1.34379 14.11949,1.58645 9.09268,0.5177 13.39231,-0.44687 20.14549,-4.5194 2.37846,-1.43433 4.4974,-2.60787 4.70877,-2.60787 0.21135,0 0.18273,2.73448 -0.0636,6.07663 -0.24635,3.34215 -0.0668,11.93875 0.39901,19.10356 0.89035,13.69498 0.34155,20.37211 -2.05538,25.00725 -2.26325,4.37666 -14.67781,10.67704 -24.25416,12.30897 -6.67763,1.13796 -21.03774,1.51692 -30.86188,0.81444 z m 12.86455,-28.71838 c 2.98637,-1.59825 1.26661,-3.65689 -3.05491,-3.65689 -1.57879,0 -2.14944,0.35198 -2.14944,1.32581 0,2.70028 2.45764,3.80108 5.20435,2.33108 z"
       id="path8739"
       transform="scale(0.26458333)" /><path
       style="display:inline;fill:#ff0000;stroke-width:0.736561"
       d="m 571.32109,378.92579 c -5.91925,-0.99349 -13.82663,-3.63356 -19.01681,-6.34921 -5.75354,-3.01042 -10.9316,-7.23047 -10.9316,-8.90911 0,-0.65117 1.37766,-5.18282 3.06147,-10.07033 2.91871,-8.47201 3.07774,-9.38698 3.41049,-19.62233 l 0.34902,-10.73595 2.63774,1.34479 c 4.96765,2.53266 12.12652,1.38289 25.15967,-4.04084 10.83557,-4.5092 14.03205,-4.26116 31.30386,2.42907 9.85716,3.81817 15.40159,4.25569 19.76394,1.55961 l 2.70119,-1.66943 0.009,10.92435 0.009,10.92436 3.3248,9.56659 3.32479,9.56658 -3.04935,2.58668 c -7.8845,6.68821 -18.07314,11.13363 -28.66204,12.50559 -6.54812,0.84841 -28.31945,0.84162 -33.39588,-0.0104 z m 19.23827,-31.58423 c -0.3,-1.57587 -3.40506,-1.94561 -3.97024,-0.47277 -0.24409,0.63608 -0.25378,1.65167 -0.0215,2.25687 0.34682,0.90379 0.76078,0.94613 2.31721,0.23697 1.08416,-0.49398 1.80066,-1.35873 1.67457,-2.02107 z"
       id="path8741"
       transform="scale(0.26458333)" /></g><path
     style="display:inline;fill:#000000"
     d="m 138.86553,610.87512 c -0.36953,-0.59791 -1.52064,-0.86516 -2.55802,-0.59388 -1.03738,0.27128 -2.13815,0.0855 -2.44616,-0.41288 -0.30801,-0.49837 -1.23484,-0.90612 -2.05964,-0.90612 -0.82479,0 -3.31903,-1.46212 -5.54275,-3.24915 -3.84323,-3.0885 -4.01431,-3.45949 -3.46006,-7.5032 0.59334,-4.32885 3.85939,-11.78405 5.43468,-12.4054 1.62861,-0.64239 8.32315,-10.17139 11.32855,-16.12507 2.4008,-4.75593 3.05963,-7.46623 3.30099,-13.57952 0.41071,-10.40274 -0.98786,-30.95374 -4.05858,-59.63766 -1.96151,-18.32274 -2.435,-26.83863 -2.00162,-36 0.31221,-6.6 0.85981,-18.11288 1.21688,-25.58418 0.94247,-19.72016 -0.63347,-31.4848 -5.76673,-43.04952 -8.75717,-19.72903 -9.10699,-41.03684 -1.35223,-82.3663 5.14642,-27.4282 5.83469,-31.84093 7.95462,-51 0.9316,-8.41943 2.18794,-14.6877 3.56558,-17.78982 1.85325,-4.17307 1.97246,-5.25855 0.92578,-8.43002 -0.86119,-2.60943 -0.95266,-6.20849 -0.32303,-12.71018 0.4831,-4.98849 0.80257,-13.34498 0.70993,-18.56998 -0.17223,-9.71428 -0.69627,-11.7857 -8.72286,-34.47952 -2.32193,-6.56485 -4.59149,-9.59938 -4.59149,-6.13906 0,0.85145 -2.66381,6.94331 -5.91958,13.53747 -3.25577,6.59416 -6.43723,14.59752 -7.06991,17.78525 -3.98086,20.05725 -9.38298,31.95065 -22.39078,49.29586 -4.743346,6.325 -10.72006,15.69816 -13.281588,20.82924 -3.995893,8.00431 -4.771218,10.56066 -5.459282,18 -0.441076,4.76892 -1.202496,10.27235 -1.692042,12.22986 -2.020041,8.07733 -10.764922,30.94876 -12.016947,31.42921 -2.291705,0.87941 -3.16863,-0.43513 -3.200281,-4.79733 -0.03877,-5.34322 -1.452924,-3.08493 -2.339458,3.73594 -0.352204,2.7098 -1.382811,5.7473 -2.290239,6.75 -1.946495,2.15085 -5.182414,2.39704 -5.929145,0.45109 -0.443564,-1.15591 4.311217,-21.13393 6.203552,-26.06528 0.329822,-0.8595 0.101532,-1.56273 -0.507312,-1.56273 -0.608844,0 -1.106989,0.21241 -1.106989,0.47203 0,1.82649 -7.395451,27.28299 -8.215125,28.27797 -1.442423,1.75091 -4.729125,1.55886 -5.44951,-0.31844 -0.694425,-1.80964 1.902097,-13.63862 5.314757,-24.21246 2.658368,-8.23672 2.655136,-8.2191 1.507501,-8.2191 -0.463308,0 -2.070779,4.1625 -3.572158,9.25 -4.643022,15.73312 -4.885623,16.25 -7.627029,16.25 -2.18134,0 -2.493328,-0.48381 -2.768006,-4.29241 -0.45249,-6.27409 5.136234,-26.01086 10.646567,-37.59872 0.796113,-1.67417 -5.192354,0.51236 -8.096885,2.95636 -8.569463,7.21073 -15.292783,1.65528 -6.896894,-5.69887 2.11377,-1.8515 4.92627,-4.24998 6.25,-5.32997 3.474918,-2.83507 16.696813,-9.53639 18.815559,-9.53639 3.770011,0 11.900473,-21.26227 18.00968,-47.09778 4.57601,-19.3517 10.996472,-35.80262 16.179874,-41.4571 1.036027,-1.13018 2.749658,-5.40518 3.808068,-9.5 2.590775,-10.02328 7.748909,-23.2372 10.373022,-26.57322 1.86021,-2.36487 2.18618,-4.29533 2.49838,-14.79581 0.6411,-21.56237 5.86625,-31.854499 19.46992,-38.350429 7.87454,-3.76019 8.81416,-4.03714 17.32142,-5.10535 8.29763,-1.04189 21.3582,-6.23961 26.0668,-10.37381 3.35983,-2.94997 3.36405,-2.96519 3.35537,-12.100092 -0.0133,-13.965321 -0.89885,-19.646408 -3.06251,-19.646408 -3.47575,0 -6.2793,-5.691052 -6.3574,-12.905193 -0.0635,-5.860441 0.15131,-6.626902 1.9286,-6.88303 1.83191,-0.263999 2.00397,-1.069548 2.04723,-9.5848826 0.0419,-8.25464 0.3782,-9.95338799 3,-15.155815 5.58339,-11.0790804 13.91094,-16.9724944 23.95277,-16.9513914 9.99541,0.02101 19.68957,6.187632 24.66391,15.6891444 1.83622,3.507381 2.31979,6.33583001 2.64748,15.485529 0.37735,10.5359196 0.52703,11.2123376 2.54477,11.4999996 1.93887,0.276417 2.12465,0.862405 1.94308,6.128942 -0.22703,6.585244 -2.79984,12.015287 -5.909,12.471235 -1.57388,0.230804 -2.26617,1.542131 -3.19936,6.060195 -1.77802,8.608288 -1.55259,21.183847 0.43049,24.015087 2.16924,3.09702 18.3499,10.87699 24.2031,11.63732 13.95919,1.81328 26.83671,6.93538 31.60036,12.56921 6.42392,7.597389 9.78841,19.784439 9.43331,34.169929 -0.15928,6.45232 0.16485,7.86137 2.93381,12.75372 3.58537,6.33485 7.75553,16.84253 10.12011,25.5 0.90132,3.3 4.21483,10.77231 7.36335,16.60513 3.14852,5.83282 5.72459,11.16339 5.72459,11.84571 0,0.68232 0.65928,2.43501 1.46507,3.89487 0.80579,1.45986 3.49885,10.97929 5.98457,21.15429 4.29774,17.59223 7.67055,27.89527 12.48412,38.13569 1.96132,4.17252 2.90848,4.94044 10.36243,8.40139 9.58895,4.45226 15.73848,8.35818 20.95381,13.30901 4.17289,3.96125 4.52062,5.24043 2.08631,7.67474 -2.17342,2.17342 -6.89244,1.27211 -10.30013,-1.96727 -1.3949,-1.326 -3.76949,-2.71574 -5.27687,-3.08831 l -2.74069,-0.67739 2.14643,4.85236 c 3.54677,8.01805 7.99017,24.41755 8.56458,31.60978 l 0.5391,6.75 h -3.02737 c -3.39375,0 -3.61899,-0.35913 -6.27208,-10 -1.01358,-3.68318 -1.82786,-5.4079 -1.87901,-3.9799 -0.0496,1.38605 0.83608,5.86294 1.96828,9.94864 2.42354,8.74562 2.00231,12.03126 -1.54242,12.03126 -2.87398,0 -3.88417,-1.63952 -5.3833,-8.73704 -0.60839,-2.88037 -2.01216,-7.81478 -3.11949,-10.96534 -1.10734,-3.15057 -2.01334,-6.7564 -2.01334,-8.01296 0,-1.25656 -0.50246,-2.28466 -1.11658,-2.28466 -0.66124,0 -0.88264,0.91754 -0.54291,2.25 0.31552,1.2375 1.70661,6.525 3.09132,11.75 3.31748,12.51807 3.33301,15 0.0939,15 -2.78061,0 -5.52573,-4.16875 -5.52573,-8.39132 0,-3.17923 -1.75276,-4.34734 -2.17851,-1.45184 -0.36484,2.48134 -1.70252,3.2026 -3.65114,1.96866 -1.53634,-0.97287 -9.70601,-22.76636 -11.85536,-31.6255 -0.80063,-3.3 -1.80846,-9.39827 -2.23962,-13.55171 -1.00639,-9.6946 -4.95282,-18.14238 -14.86471,-31.81958 -16.31664,-22.51499 -23.66563,-37.66333 -25.71507,-53.00607 -0.45885,-3.43507 -2.79155,-9.57546 -6.45819,-17 -3.15694,-6.39245 -6.45727,-13.19764 -7.33406,-15.12264 -1.2791,-2.80825 -1.66612,-8.24344 -1.95818,-27.5 -0.21311,-14.0505 -0.81026,-25.04258 -1.44045,-26.5149 -1.5561,-3.63553 -9.60588,-12.301769 -15.32906,-16.502969 l -4.92967,-3.61872 -14.43498,-0.1817 c -13.55092,-0.17058 -14.62162,-0.0439 -17.48249,2.06829 -3.73125,2.7548 -6.43771,2.83892 -10.51048,0.32667 -2.62382,-1.61848 -5.35468,-1.96513 -17.22924,-2.18705 l -14.11121,-0.26372 -4.98771,3.66131 c -6.89169,5.05897 -13.06185,11.982449 -15.62898,17.537119 -1.96357,4.24872 -2.18989,6.64057 -2.47847,26.19414 l -0.31757,21.51847 4.56757,10.09956 c 2.51217,5.55476 4.56758,10.85187 4.56758,11.77137 0,0.91949 0.853,3.34138 1.89556,5.38197 1.61155,3.15428 2.99743,4.14031 9.25,6.58118 9.81753,3.83256 17.72776,4.38901 29.49679,2.07498 8.57945,-1.6869 10.11222,-1.72338 17.62709,-0.41945 4.52681,0.78546 12.50556,1.43831 17.73056,1.45078 8.52005,0.0203 9.96419,-0.25222 14,-2.64222 5.51693,-3.26711 10.55954,-8.48896 11.42887,-11.83511 2.2698,-8.73669 8.57113,-22.05501 8.57113,-18.11569 0,1.42693 -7.16037,21.51498 -8.08098,22.67079 -2.28458,2.86823 -3.16371,16.02904 -1.90337,28.49395 0.94791,9.37498 0.9935,14.11221 0.18023,18.72919 -0.98036,5.56559 -0.85494,6.85342 1.26126,12.95095 1.35963,3.91758 2.633,10.56343 3.02175,15.77081 0.64091,8.58522 2.63101,21.96614 6.02343,40.5 7.27936,39.76938 8.52295,53.03654 6.5554,69.93614 -1.20146,10.31958 -3.64285,18.44257 -8.09649,26.93866 -1.87297,3.57301 -2.55422,7.42174 -3.71713,21 -1.27381,14.87308 -1.25404,17.99526 0.18766,29.6252 1.33468,10.76663 1.43444,15.66286 0.58066,28.5 -0.56699,8.525 -1.48761,18.87325 -2.04582,22.99612 -1.96861,14.53975 -3.94219,40.64263 -3.95432,52.30042 -0.0121,11.58763 0.0529,11.92833 3.66766,19.23885 2.02397,4.09328 5.43291,9.35984 7.57541,11.70347 5.48676,6.00181 8.63641,11.69229 9.34894,16.89079 0.57711,4.21049 0.41901,4.61002 -2.74596,6.93936 -5.30377,3.90343 -7.14483,4.61229 -17.18346,6.61611 -2.46657,0.49236 -3.51055,-0.17845 -8.2258,-5.28557 -5.50947,-5.96733 -5.79662,-6.67931 -7.92398,-19.64706 -0.46098,-2.80998 -1.34985,-4.12763 -3.55301,-5.26693 -5.14661,-2.66141 -6.23382,-6.27706 -5.5196,-18.3561 0.34567,-5.8462 1.14576,-13.45668 1.77797,-16.91217 0.9982,-5.45588 0.78977,-9.00919 -1.58372,-27 -3.04537,-23.08366 -3.45995,-25.17106 -6.69664,-33.71729 -1.90105,-5.01959 -2.25301,-7.79742 -2.15395,-17 0.0651,-6.05 0.98543,-15.9289 2.04511,-21.95312 1.69713,-9.648 1.7618,-11.42051 0.54273,-14.87572 -0.76119,-2.15744 -1.38398,-5.80628 -1.38398,-8.10855 0,-2.30226 -0.91823,-7.69162 -2.0405,-11.97635 -1.12228,-4.28473 -2.89745,-13.93198 -3.94483,-21.43834 -1.04738,-7.50635 -2.87971,-19.72292 -4.07184,-27.14792 -1.68707,-10.50754 -2.17516,-17.93327 -2.20197,-33.5 -0.037,-21.47434 -0.6687,-24.5 -5.11532,-24.5 -4.16168,0 -4.84273,3.07779 -4.73635,21.4046 0.0991,17.06742 -0.62992,24.45237 -5.78404,58.5954 -1.12086,7.425 -2.76177,16.65 -3.64649,20.5 -1.87316,8.15142 -4.7902,26.86995 -4.75304,30.5 0.0141,1.375 0.85128,10.84175 1.86044,21.03723 l 1.83484,18.53723 -3.61145,11.46277 c -2.64389,8.39171 -4.21527,16.28526 -5.86522,29.46277 -2.54974,20.36387 -2.60183,22.63725 -0.9598,41.88515 0.6515,7.63684 0.89527,15.03771 0.54172,16.44638 -0.35356,1.40867 -2.20592,4.0354 -4.11636,5.83718 -3.01205,2.84073 -3.65891,4.33041 -4.86896,11.21284 -1.12174,6.38009 -2.11566,8.88041 -5.06725,12.74721 -2.0195,2.64568 -4.41021,5.37222 -5.31269,6.05898 -2.03263,1.54675 -7.78586,1.69573 -8.69473,0.22514 z m 6.75679,-1.97607 c 4.34097,-2.00922 8.90295,-10.22789 10.36188,-18.6675 1.028,-5.94677 1.91103,-8.26068 3.76427,-9.86396 3.54024,-3.06275 5.80232,-6.89931 5.11853,-8.68123 -1.30153,-3.39172 -11.93437,-8.72412 -17.39596,-8.72412 -2.14905,0 -2.90333,0.70087 -3.9908,3.70822 -1.70021,4.70183 -8.78308,15.59526 -13.49005,20.74764 -4.63662,5.07537 -6.41996,10.58899 -4.55315,14.07715 1.57636,2.94547 2.16885,2.44991 3.98505,-3.33314 0.74277,-2.36507 1.75096,-4.54763 2.24042,-4.85014 1.99242,-1.23138 1.75279,0.72478 -0.67591,5.51759 -2.91455,5.75159 -3.14714,7.13268 -1.20122,7.13268 0.75694,0 2.3233,-2.62545 3.51301,-5.88835 1.18085,-3.2386 2.81615,-6.4437 3.63399,-7.12245 2.24719,-1.865 1.8053,0.0224 -1.53401,6.55186 -1.66155,3.24891 -2.80067,6.48126 -2.53139,7.18302 0.67921,1.76998 3.55239,1.60666 3.55239,-0.20193 0,-1.15016 4.3046,-11.21837 5.75281,-13.45548 0.15429,-0.23834 0.76987,0.056 1.36796,0.6541 0.78325,0.78325 0.0987,2.77449 -2.44726,7.11849 -3.58644,6.11932 -3.55195,7.01166 0.32649,8.44752 0.825,0.30543 1.59133,0.59085 1.70295,0.63427 0.11162,0.0434 1.23662,-0.39949 2.5,-0.98424 z m -19.1018,-12.68681 c 0.60198,-1.7875 1.50048,-3.25 1.99668,-3.25 1.39537,0 1.04161,1.26714 -1.11674,4 l -1.97444,2.5 z m 119.57945,11.52992 c 0.86693,-0.66795 0.26916,-2.46473 -2.25,-6.76303 -3.58575,-6.11815 -4.25559,-8.45855 -2.22739,-7.78249 1.50938,0.50313 6.79679,10.61293 6.79679,12.99581 0,1.10312 0.75338,1.76979 2,1.76979 2.70987,0 2.52709,-1.55745 -1.04919,-8.94026 -2.85101,-5.88557 -3.23578,-7.97193 -1.24307,-6.74037 0.46243,0.2858 1.95487,3.47797 3.31653,7.09371 2.50114,6.64154 3.56622,7.81765 4.6119,5.09266 0.31537,-0.82184 0.90843,-1.2872 1.3179,-1.03413 0.40948,0.25307 1.29931,-0.57655 1.97742,-1.8436 1.93995,-3.62483 -0.20009,-9.48102 -5.80548,-15.88662 -5.64306,-6.44864 -11.64369,-15.96156 -12.68227,-20.10545 -0.68929,-2.75028 -0.9108,-2.84552 -5.57527,-2.39732 -5.32925,0.51207 -13.18863,4.79178 -15.63517,8.51389 -1.39667,2.12485 -1.25342,2.46488 2.52765,6 5.05604,4.72715 6.03787,6.68439 6.85935,13.67393 0.49099,4.17754 1.60322,6.98328 4.29641,10.83824 4.99993,7.15676 8.60917,8.71631 12.76389,5.51524 z m 7.5694,-9.75561 c -2.51986,-4.39077 -2.67917,-5.02431 -1.26342,-5.02431 1.06231,0 4.23975,6.83903 3.78713,8.1513 -0.15054,0.43645 -1.28621,-0.97069 -2.52371,-3.12699 z m 2.98363,-2.41089 c -0.74727,-1.64009 -0.81461,-2.61342 -0.18081,-2.61342 1.21661,0 2.28512,2.48617 1.7537,4.08043 -0.21017,0.63053 -0.91797,-0.0296 -1.57289,-1.46701 z m -33.86308,-29.08248 c 4.27984,-3.26439 9.85195,-5.53094 13.59733,-5.53094 h 3.03212 v -6.55103 -6.55102 l -3.72049,-1.55452 c -3.67041,-1.5336 -13.43642,-1.51985 -14.97735,0.0211 -0.38509,0.38509 -0.77819,4.84811 -0.87356,9.91782 -0.0954,5.06972 -0.50396,10.00517 -0.90799,10.96767 -1.0032,2.38992 0.0258,2.19773 3.84994,-0.71906 z m -58.22819,-7.74844 c -0.4989,-12.85999 -0.95942,-13.78382 -6.86761,-13.77692 -2.62611,0.003 -6.4368,0.46719 -8.46818,1.03138 -3.3633,0.93412 -3.75124,1.41125 -4.34007,5.33787 -1.14167,7.61321 -0.52896,8.98166 4.39606,9.81826 2.3994,0.40757 6.6744,2.08055 9.5,3.71772 2.82559,1.63718 5.36244,3.00222 5.63744,3.03344 0.275,0.0312 0.33906,-4.09157 0.14236,-9.16175 z m 76.87435,-46.7825 c 0.57437,-5.775 1.68357,-15.675 2.4649,-22 1.54052,-12.47079 1.90752,-31.0948 0.85753,-43.51626 l -0.66087,-7.81801 -2.08913,2.53878 c -5.40604,6.56957 -13.99802,6.29742 -23.21859,-0.73545 -1.78041,-1.35798 -3.65574,-2.46906 -4.1674,-2.46906 -1.26703,0 -4.20888,22.65031 -4.20571,32.38131 0.002,6.121 0.66394,9.80756 2.9637,16.50552 1.83223,5.33629 3.54086,13.38762 4.48174,21.11869 0.83632,6.87196 1.96976,15.41948 2.51875,18.99448 0.54899,3.575 1.0072,8.878 1.01826,11.78444 l 0.0201,5.28445 4.75,-0.61116 c 2.92189,-0.37595 6.28946,-0.0965 8.75,0.72598 l 4,1.33715 0.73621,-11.51043 c 0.40491,-6.33074 1.20614,-16.23543 1.7805,-22.01043 z m -84.26651,31.51317 5.25021,-0.0132 0.0196,-4 c 0.0108,-2.2 0.48513,-7.15 1.0541,-11 0.56897,-3.85 1.87733,-13.31526 2.90746,-21.03392 1.14088,-8.54855 2.87855,-16.70554 4.44569,-20.86906 2.94625,-7.82745 3.36738,-17.67467 1.47059,-34.38643 -0.60619,-5.34083 -1.16869,-10.72277 -1.25,-11.95988 -0.18966,-2.88536 -0.66475,-2.83643 -5.84772,0.60222 -9.07683,6.02204 -16.82662,6.81868 -22.01533,2.26307 l -3.2848,-2.884 -0.5,6.634 c -0.92252,12.24 -0.24768,34.52637 1.42065,46.91649 2.05728,15.27865 4.66331,49.27264 3.87509,50.54801 -0.36445,0.5897 0.8828,0.61649 3.3097,0.0711 2.14201,-0.48138 6.25715,-0.88116 9.14476,-0.88841 z m 2.68408,-101.48147 c 2.23614,-1.08257 5.53532,-3.22007 7.33151,-4.75 3.34551,-2.8496 3.83571,-4.44046 5.73257,-18.60378 l 0.6458,-4.82208 -4.43086,0.66444 c -5.37381,0.80586 -9.08382,-0.87446 -19.24415,-8.71593 -3.83303,-2.95823 -8.27628,-6.20539 -9.87389,-7.21592 -2.82313,-1.78569 -2.88477,-1.78527 -2.19398,0.0149 1.37878,3.59304 2.53733,16.03183 2.56784,27.56975 l 0.0309,11.67307 3.07692,3.07693 c 2.54546,2.54546 3.87274,3.07692 7.68428,3.07692 2.53889,0 6.43265,-0.88367 8.67308,-1.9683 z m 79.98207,-1.2817 3.21636,-3.25 1.26973,-17.97659 c 0.69835,-9.88712 1.71745,-18.81316 2.26466,-19.83565 0.54722,-1.02248 0.74753,-2.10647 0.44513,-2.40886 -0.7019,-0.70191 -3.48053,1.13328 -12.69691,8.38583 -11.92095,9.38084 -15.25397,10.67781 -21.41792,8.33428 -2.2786,-0.86632 -2.56611,-0.76542 -2.13706,0.75 0.27266,0.96304 0.7841,4.67599 1.13653,8.25099 0.98785,10.02059 1.96574,12.1391 7.25155,15.70991 6.04582,4.08423 8.81378,5.14788 13.60158,5.2267 3.06388,0.0505 4.50674,-0.60022 7.06635,-3.18661 z m -66.7508,-29.2283 c 1.16082,-0.81306 2.3475,-2.95056 2.63708,-4.75 0.28959,-1.79943 1.25151,-7.9967 2.1376,-13.7717 0.8861,-5.775 2.50956,-16.125 3.6077,-23 2.85488,-17.87318 4.18479,-36.9024 3.40135,-48.66851 -0.53375,-8.01599 -0.36402,-10.79603 0.8018,-13.13297 1.42289,-2.85226 1.32701,-3.20547 -2.5331,-9.33149 -3.72643,-5.91388 -39.59571,-42.86703 -41.6097,-42.86703 -0.4496,0 -1.07876,4.3875 -1.39813,9.75 -0.31937,5.3625 -2.59112,20.55 -5.04835,33.75 -6.83862,36.73655 -7.61617,42.24013 -7.64199,54.091 -0.0457,20.97818 5.81431,42.409 11.59626,42.409 0.71836,0 3.82618,2.05263 6.90627,4.5614 14.17246,11.54363 21.87176,14.65257 27.14321,10.9603 z m 49.93081,0.0166 c 2.36373,-1.18989 12.69037,-8.89142 18.1028,-13.50092 0.65954,-0.5617 2.75926,-1.76523 4.66606,-2.67452 4.85306,-2.31426 9.01869,-12.97489 10.68447,-27.34358 1.90188,-16.4052 1.0028,-26.01714 -6.03503,-64.5193 -4.99408,-27.32135 -5.9624,-33.51241 -6.2059,-39.67818 -0.12645,-3.202 -0.64775,-5.82182 -1.15844,-5.82182 -2.54159,0 -34.38649,30.27294 -41.42056,39.37593 -4.28345,5.54333 -4.47506,6.0568 -3.38511,9.071 0.69645,1.92601 1.16886,9.91916 1.18936,20.12407 0.0342,17.01236 0.64761,23.51768 5.39501,57.21269 2.4515,17.39975 3.98628,26.04202 4.73218,26.64669 3.48267,2.8233 9.10633,3.28706 13.43516,1.10794 z M 44.423369,327.95477 c 0.590902,-1.10412 2.213772,-6.52583 3.606377,-12.04827 2.799679,-11.10225 4.965093,-16.94426 6.280598,-16.94426 1.983681,0 3.165607,2.78222 2.182727,5.13808 -0.541976,1.29905 -2.158507,6.80131 -3.592292,12.22724 -2.561649,9.69415 -2.67058,14.22385 -0.284682,11.83795 1.186151,-1.18615 7.726296,-22.50668 7.775058,-25.34628 0.02826,-1.64561 2.842353,-3.37618 3.850566,-2.36797 0.294853,0.29485 -0.231158,2.14504 -1.168914,4.11154 -0.937755,1.96649 -1.970584,6.51573 -2.295175,10.10942 -0.867468,9.60415 1.214601,7.84423 5.637658,-4.76536 2.015009,-5.74454 3.948908,-11.11962 4.297554,-11.94462 1.400486,-3.31397 3.565201,-14.84013 3.812811,-20.30155 0.261846,-5.7754 0.245301,-5.81244 -3.671628,-8.21836 -6.145217,-3.77463 -13.24412,-5.89238 -15.786826,-4.70955 -11.785861,5.48262 -16.097089,7.90155 -21.897832,12.28637 -3.7125,2.80631 -6.75,5.74154 -6.75,6.52273 0,1.9314 4.419171,1.82514 6.054723,-0.14558 3.506335,-4.22487 12.945277,-6.14548 12.945277,-2.63406 0,0.99 -0.397592,2.2275 -0.883538,2.75 -1.100384,1.18316 -4.199986,10.17014 -7.55562,21.90677 -2.59985,9.0932 -3.329332,16.54323 -1.619859,16.54323 1.372726,0 2.121657,-1.5392 3.567,-7.33087 2.72752,-10.92953 5.928787,-18.64397 7.742017,-18.65677 2.300525,-0.0163 2.270101,3.07778 -0.104305,10.60737 -4.470753,14.17741 -5.931961,23.38027 -3.712264,23.38027 0.272911,0 0.979667,-0.90336 1.570569,-2.00747 z M 340.15593,313.25902 c -2.0699,-8.03178 -3.55181,-14.81487 -3.29313,-15.07354 1.66178,-1.66178 3.8435,1.93002 6.66652,10.97519 3.22673,10.33868 4.38347,12.80157 6.01249,12.80157 1.16345,0 1.07409,-5.40703 -0.18179,-11 -1.7618,-7.84603 -7.98031,-26.90647 -8.97983,-27.52421 -0.52845,-0.3266 -0.96082,-1.52843 -0.96082,-2.67073 0,-1.88856 0.4112,-2.02055 4.53439,-1.4554 3.00848,0.41236 5.31857,1.46765 6.86467,3.13592 2.41494,2.60577 6.94585,3.38339 8.17028,1.40223 1.13113,-1.83022 -7.39836,-8.42003 -17.56934,-13.57392 -5.225,-2.64764 -9.79246,-5.21758 -10.14992,-5.71097 -1.42729,-1.97009 -14.77263,2.36917 -20.09266,6.53316 -2.90622,2.2747 -0.70945,16.31311 5.28713,33.7873 4.90996,14.30774 6.26102,17.10439 7.61096,15.75444 0.66166,-0.66165 -1.21073,-15.35517 -2.32759,-18.26564 -0.32817,-0.8552 0.0919,-1.41218 1.06509,-1.41218 0.9998,0 1.60704,0.85015 1.60713,2.25 7e-5,1.2375 1.11832,5.85 2.48499,10.25 1.36667,4.4 2.49161,8.68737 2.49986,9.52749 0.008,0.84013 0.75393,2.58246 1.65706,3.87186 1.41018,2.01331 1.76593,2.12301 2.5193,0.77681 0.86365,-1.54325 -0.60315,-8.88123 -3.73322,-18.67616 -1.96592,-6.15194 -1.85727,-9 0.34331,-9 1.82179,0 2.71565,2.48217 7.10305,19.72452 2.05375,8.07113 3.80184,10.99915 5.53313,9.26786 0.78984,-0.78985 0.0501,-5.1368 -2.67106,-15.6956 z M 198.41959,299.12063 c 1.64988,-2.27759 2.99978,-4.59497 2.99978,-5.14973 0,-0.60743 -3.77896,-1.00866 -9.5,-1.00866 -5.33241,0 -9.5,0.4167 -9.5,0.94987 0,0.52243 1.30559,2.88493 2.90131,5.25 2.55576,3.78798 3.32995,4.28819 6.50022,4.19986 3.01748,-0.0841 4.08355,-0.76929 6.59869,-4.24134 z m 10.6625,-13.12815 c 4.2847,-4.76562 24.59058,-23.19378 31.59155,-28.67021 2.6164,-2.04666 2.69192,-2.35191 1.73194,-7 -2.45929,-11.90754 -2.38082,-11.79144 -5.58001,-8.25639 -2.82328,3.1197 -9.66958,6.86716 -16.692,9.13671 -9.08716,2.93685 -36.07703,3.67545 -47.80093,1.30811 -9.24938,-1.86768 -19.02985,-6.07363 -23.27737,-10.0101 -1.50642,-1.3961 -3.06602,-2.53836 -3.46579,-2.53836 -0.70898,0 -4.17011,10.52678 -4.17011,12.68312 0,0.59628 1.9125,2.79222 4.25,4.87986 13.84775,12.36752 23.90145,22.08271 28.58715,27.62462 l 5.33715,6.3124 12.35557,-0.0781 12.35556,-0.0781 4.77729,-5.3135 z M 76.423107,268.21224 c 0.0021,-0.9625 0.902056,-3.22338 2,-5.02417 2.534348,-4.15671 2.523378,-4.22583 -0.670692,-4.22583 -1.466825,0 -5.528715,-1.57302 -9.026423,-3.4956 l -6.359468,-3.49561 -0.97401,2.74561 c -0.535704,1.51008 -1.423814,3.52699 -1.973577,4.48203 -1.624227,2.82158 -1.256542,3.26205 4.29947,5.1506 2.914472,0.99066 6.401972,2.64884 7.75,3.68485 3.083698,2.36993 4.949875,2.43702 4.9547,0.17812 z M 313.7413,267.54882 c 2.29794,-1.32738 6.09057,-2.97361 8.42807,-3.65829 4.71242,-1.38031 4.61218,-1.26929 3.33341,-3.69186 -0.50412,-0.95504 -1.45871,-3.19893 -2.12132,-4.98643 -1.24896,-3.36931 -2.35427,-4.04248 -3.52561,-2.14722 -1.00888,1.6324 -10.57396,5.87616 -13.26981,5.88745 -1.28334,0.005 -2.18334,0.34938 -2,0.76445 0.18333,0.41508 1.18197,2.89008 2.21919,5.5 1.03722,2.60993 2.08209,4.74532 2.32193,4.74532 0.23984,0 2.3162,-1.08604 4.61414,-2.41342 z M 82.119916,256.21224 c 0.586712,-1.60988 12.998959,-20.10721 14.259368,-21.25 1.84172,-1.66985 6.186386,-8.67183 10.062246,-16.21658 5.2529,-10.22531 5.22859,-10.33027 -3.81278,-16.45602 -7.132113,-4.83219 -15.369654,-7.13464 -20.431042,-5.71062 -2.975883,0.83727 -3.477387,1.56637 -5.435837,7.90279 -1.186624,3.83924 -3.117712,11.25543 -4.291306,16.48043 -2.436354,10.84697 -6.789564,25.06529 -8.083844,26.4032 -1.683704,1.74045 1.223368,4.77193 7.360181,7.67514 7.106355,3.36189 9.477203,3.62968 10.373014,1.17166 z m 232.596444,-1.91387 c 2.63834,-1.32959 5.06033,-3.10372 5.3822,-3.9425 0.32187,-0.83878 -0.59116,-4.53298 -2.02895,-8.20934 -2.12133,-5.42413 -6.77354,-23.23711 -10.30701,-39.46484 -0.333,-1.5293 -1.78395,-3.71285 -3.22434,-4.85232 -2.15357,-1.70367 -3.50571,-1.96805 -7.61005,-1.488 -6.31648,0.73877 -16.0167,5.47917 -20.33319,9.93661 l -3.32435,3.4329 4.19597,8.37568 c 2.30778,4.60662 4.59124,8.52568 5.07435,8.70901 0.48311,0.18334 0.87838,0.78477 0.87838,1.33653 0,1.10514 5.0613,8.61916 8.99153,13.34887 1.37966,1.66029 4.5163,6.06261 6.97032,9.78292 4.22507,6.40523 4.62308,6.72938 7.5,6.10806 1.67098,-0.36087 5.19679,-1.74398 7.83514,-3.07358 z m -100.17499,-3.77448 c 7.06158,-1.49681 16.76175,-6.03912 20.89164,-9.78297 3.81218,-3.45584 5.42465,-14.54591 3.90741,-26.87407 -0.63659,-5.17254 -0.88415,-13.34211 -0.55014,-18.15461 0.334,-4.8125 0.40975,-8.75 0.16832,-8.75 -0.24143,0 -2.37403,1.28382 -4.7391,2.85293 -8.4933,5.6349 -15.93908,6.44134 -32.12723,3.47969 -7.98719,-1.46128 -10.0445,-1.50184 -16.64333,-0.32809 -12.16947,2.1646 -22.42249,1.87049 -30.52957,-0.87574 -3.85,-1.30417 -7.57337,-2.8308 -8.27417,-3.3925 -1.90841,-1.52966 -2.14051,-0.69285 -1.1826,4.26371 1.21907,6.30792 1.15374,15.10864 -0.18316,24.67613 -1.50605,10.77797 0.17334,19.33275 4.51186,22.98337 4.39392,3.69725 12.02934,7.27203 19.99011,9.35906 9.0301,2.36737 34.68486,2.67865 44.75996,0.54309 z m -23.922,-28.76165 c -1.94521,-1.94521 -1.39571,-2.8 1.8,-2.8 3.23347,0 4.20474,2.32372 1.41821,3.39301 -2.01395,0.77283 -1.81587,0.80933 -3.21821,-0.59301 z m 85.73985,-17.40548 c 6.24962,-6.58536 20.11497,-11.61687 26.18323,-9.50146 1.66444,0.58023 2.88016,0.69152 2.70159,0.24731 -0.17857,-0.44421 -2.76224,-5.60313 -5.74148,-11.46427 l -5.41682,-10.65662 -1.73422,2.8517 c -0.95382,1.56843 -3.17003,3.87408 -4.92491,5.12367 -3.98425,2.83703 -14.68797,6.24126 -17.15855,5.45713 -1.26468,-0.4014 -1.84869,-0.0887 -1.84869,0.98995 0,2.5597 4.27511,19.55963 4.91407,19.54079 0.32226,-0.01 1.68386,-1.17419 3.02578,-2.5882 z m -163.86334,-0.14452 c 0.0421,-0.9625 0.23391,-2.425 0.42629,-3.25 0.19237,-0.825 0.80183,-3.75 1.35434,-6.5 0.55251,-2.75 1.26564,-5.675 1.58473,-6.5 0.45591,-1.17877 -0.35035,-1.53581 -3.76484,-1.66721 -7.21922,-0.27783 -18.902205,-6.31617 -20.213366,-10.44727 -0.78804,-2.48289 -1.715953,-2.37049 -3.073232,0.37228 -0.610261,1.23321 -2.972761,5.89888 -5.25,10.36816 -2.277238,4.46928 -4.140433,8.42261 -4.140433,8.78518 0,0.36258 0.951467,0.15002 2.11437,-0.47235 4.492703,-2.40442 17.830728,1.98795 26.385631,8.6891 3.59677,2.81739 4.47531,2.93681 4.57651,0.62211 z m 4.91493,-21.25 c 0.38124,-0.825 1.22318,-2.4 1.87097,-3.5 0.64779,-1.1 1.89504,-3.575 2.77167,-5.5 0.87663,-1.925 3.11759,-6.58686 4.9799,-10.3597 l 3.38602,-6.85969 v -19.4412 -19.44119 l -3.25,2.43146 c -1.7875,1.3373 -6.625,4.3224 -10.75,6.63355 -9.23818,5.17594 -11,6.71878 -11,9.63274 0,1.2573 -0.45856,2.5694 -1.01902,2.91578 -2.79185,1.72546 -11.980957,25.89725 -11.980974,31.51574 -4e-6,1.39013 0.674658,3.49072 1.499248,4.66798 4.510254,6.43929 21.457016,11.70862 23.492186,7.30453 z m 160.58498,0.53315 c 6.22846,-1.84965 13.01878,-6.78417 13.84041,-10.05779 0.34621,-1.3794 -0.0876,-5.31316 -0.96409,-8.74168 -1.73718,-6.79552 -8.34021,-23.04298 -9.5697,-23.54726 -0.4205,-0.17248 -1.4664,-2.42248 -2.32422,-5 -1.3807,-4.14862 -2.21949,-5.02901 -7.30925,-7.67176 -3.16226,-1.64194 -8.56207,-4.90145 -11.99957,-7.24335 l -6.25,-4.25801 v 20.06019 20.06019 l 6.52275,13.1382 c 3.58751,7.22601 7.07501,13.48904 7.75,13.91785 1.83416,1.1652 4.80698,0.97576 10.30367,-0.65658 z M 115.91937,125.16855 c 10.45801,-5.26085 14.09977,-8.48524 15.98118,-14.14964 2.76622,-8.32832 11.24581,-18.273339 20.24641,-23.745369 l 3.22758,-1.96225 -3.34902,-1.59704 c -2.75221,-1.31244 -4.66392,-1.43316 -10.72759,-0.67742 -9.526,1.18726 -15.70994,3.44597 -21.57902,7.88183 -9.42085,7.12028 -13.29954,16.426169 -13.29954,31.908669 0,7.96378 0.0997,8.357 1.75,6.90219 0.9625,-0.84849 4.45,-2.90092 7.75,-4.56097 z m 162.49245,0.0437 c -0.0191,-11.99062 -3.69629,-24.2319 -9.25159,-30.798059 -3.16134,-3.7366 -11.05491,-7.70061 -20.60324,-10.34659 l -7.18544,-1.99118 -5.07852,2.35291 c -4.96928,2.3023 -5.02792,2.37985 -2.72609,3.60523 7.73249,4.11639 16.94877,14.721299 18.781,21.610769 1.32498,4.9821 7.45667,10.82493 15.33829,14.61569 2.87823,1.38431 6.13314,3.21909 7.23314,4.07728 3.06616,2.39213 3.5006,2.00327 3.49245,-3.12605 z M 195.48713,87.400931 c 2.49195,-2.25518 12.97366,-3.4782 23.93224,-2.79244 5.96919,0.37353 11.07957,0.16376 13.75,-0.56442 4.62868,-1.26217 5.70509,-3.08182 1.82303,-3.08182 -2.141,0 -12.53768,-4.52244 -19.54308,-8.50102 -3.35483,-1.90531 -3.87793,-3.65562 -3.95966,-13.24898 -0.0387,-4.5375 -0.31411,-8.25 -0.6121,-8.25 -0.298,0 -1.45891,0.854405 -2.57981,1.898679 -2.02183,1.883623 -2.77584,2.134646 -12.32999,4.104901 -5.88192,1.212958 -13.02127,-0.478041 -18.92069,-4.48149 -2.04408,-1.387155 -3.92153,-2.5221 -4.17211,-2.5221 -0.25057,0 -0.45559,4.256789 -0.45559,9.459531 0,9.029349 -0.12506,9.576489 -2.75,12.031359 -3.25148,3.04082 -14.37665,8.50911 -17.31169,8.50911 -1.1959,0 -1.78179,0.44424 -1.40019,1.06168 1.43018,2.31408 6.58498,3.27964 20.53424,3.84632 12.01904,0.48827 14.87883,0.89863 16.32143,2.342 2.16768,2.16883 5.39816,2.24826 7.67397,0.18868 z m 6.15203,-33.443457 c 5.43931,-1.568358 10.02114,-6.539137 11.97839,-12.995233 2.58843,-8.538101 4.06772,-21.57111 3.63212,-31.9999996 -0.62567,-14.979276 -5.03977,-22.3224394 -16.67765,-27.7444544 -10.12697,-4.718093 -20.83425,-1.053261 -28.18229,9.6460874 -5.76579,8.39545401 -6.97944,21.7361216 -3.6172,39.7607656 2.57175,13.786912 3.43383,16.073346 7.12057,18.885358 7.9376,6.054309 15.58916,7.376066 25.74606,4.447466 z M 186.97824,40.430438 c -1.06762,-0.807509 -2.75512,-1.468197 -3.75,-1.468197 -0.99488,0 -1.80887,-0.654609 -1.80887,-1.454687 0,-1.933423 4.74018,-2.730311 13.9894,-2.351803 8.84459,0.361949 10.37771,2.217656 4.1775,5.05649 -4.62405,2.117167 -9.97493,2.20977 -12.60803,0.218197 z m 12.94113,-2.468197 c 0.39136,-0.63324 -2.17595,-1 -7,-1 -4.82405,0 -7.39136,0.36676 -7,1 0.33992,0.55 3.48992,1 7,1 3.51008,0 6.66008,-0.45 7,-1 z m -11.5,-8.858486 c -2.94681,-0.849396 -3.81826,-4.79492 -1.84251,-8.342061 0.70443,-1.264699 1.51967,-4.774453 1.81165,-7.799453 0.51477,-5.3332736 0.62834,-5.5094206 3.74655,-5.8107986 2.68461,-0.259471 3.28895,0.07083 3.6593,2 0.244,1.2709386 0.96915,4.5607986 1.61147,7.3107986 1.90195,8.142989 2.25604,11.232096 1.35154,11.791104 -1.69208,1.045765 -7.89113,1.555703 -10.338,0.85041 z m 0.42808,-4.025146 c 0.6613,-1.070002 5.56023,-0.902789 7.38845,0.252187 2.23299,1.410689 2.66503,-0.283322 0.85412,-3.34896 -0.94832,-1.60538 -1.88885,-5.008216 -2.09006,-7.561857 -0.70135,-8.9011356 -4.72356,-8.4305866 -5.18053,0.606059 -0.14788,2.924349 -0.93306,5.86768 -1.82956,6.858301 -0.86377,0.954461 -1.5705,2.26245 -1.5705,2.906643 0,1.372649 1.63761,1.566638 2.42808,0.287627 z m -12.19341,-7.613684 c -4.61197,-2.004243 -5.17959,-4.29315 -1.78808,-7.2104 2.23008,-1.9182376 3.70056,-2.3330506 7.41746,-2.0924166 l 4.63595,0.300133 0.30183,4.1341046 c 0.28161,3.857071 0.0873,4.208883 -2.89922,5.25 -3.88657,1.354867 -3.64491,1.366887 -7.66794,-0.381421 z m 7.51533,-1.13297 c 1.4978,-0.401396 2.25,-1.363993 2.25,-2.879357 0,-3.8230766 -6.70752,-5.3431436 -10.00822,-2.268075 -3.08161,2.870957 -1.45884,4.896753 4.50822,5.627881 0.55,0.06739 2.0125,-0.148812 3.25,-0.480449 z m 17.25,1.848739 c -3.76541,-1.362856 -5.53939,-8.4137536 -2.41821,-9.6114636 2.93636,-1.12679 8.47288,-0.617274 10.95339,1.008021 2.69666,1.7669176 3.45476,6.3849896 1.04815,6.3849896 -0.77916,0 -1.56666,0.378668 -1.75,0.841486 -0.43818,1.106166 -5.91944,2.06968 -7.83333,1.376967 z m 6.77749,-2.775157 c 2.67416,-1.873052 2.83583,-3.591067 0.47251,-5.021169 -2.94592,-1.7826456 -10.25,-0.4599866 -10.25,1.856121 0,1.894999 3.25224,4.721752 5.43248,4.721752 1.16738,0 3.12264,-0.700517 4.34501,-1.556704 z m -41.89369,11.400088 c -1.3447,-6.061314 -2.31751,-7.202979 -3.35425,-3.93648 -0.69581,2.19231 1.22359,10.907749 2.86478,13.008111 1.75943,2.251685 2.00242,-2.251886 0.48947,-9.071631 z m 53.4477,7.406616 c 2.87931,-5.725871 3.0001,-12.25 0.22682,-12.25 -0.74683,0 -1.633,2.643914 -2.26244,6.75 -1.32659,8.653998 -0.57354,10.688655 2.03562,5.5 z m 282.8685,573.549999 c -1.66675,-1.66675 -1.5002,-5.30597 0.31164,-6.80966 1.96781,-1.63314 5.55963,-9.78048 5.47893,-12.42787 -0.60528,-19.85555 -1.25887,-25.90853 -4.495,-41.62874 -1.97389,-9.58855 -4.6562,-22.61322 -5.9607,-28.9437 -4.89358,-23.74765 -5.71075,-50.0631 -1.97155,-63.49003 2.08647,-7.4922 1.47091,-21.64436 -1.5441,-35.5 -1.13696,-5.225 -2.94184,-14.225 -4.01083,-20 -1.06899,-5.775 -4.7344,-24.9 -8.14537,-42.5 -6.19586,-31.96963 -6.20174,-32.01708 -6.18843,-50 0.009,-12.38985 0.53002,-20.83089 1.67113,-27.08284 1.93106,-10.57997 7.13499,-29.61426 9.11509,-33.34005 0.7533,-1.41741 3.0521,-6.97759 5.10845,-12.35595 l 3.73883,-9.77884 -0.66578,-15.72116 c -0.39811,-9.40074 -1.50805,-19.85845 -2.76081,-26.0121 -2.18741,-10.74469 -5.32728,-18.91804 -6.22687,-16.20906 -0.27396,0.825 -1.50627,4.64644 -2.73847,8.49209 -1.23219,3.84565 -3.25208,9.2798 -4.48864,12.07589 -1.23656,2.79609 -3.45087,10.89964 -4.92068,18.00791 -3.89704,18.84673 -9.46573,34.30133 -20.69141,57.42411 -5.4738,11.275 -10.37155,21.28139 -10.8839,22.23643 -0.51234,0.95504 -0.93153,2.66256 -0.93153,3.79449 0,1.13192 -0.62788,4.85053 -1.39528,8.26356 -0.76741,3.41304 -2.16891,10.38913 -3.11446,15.50244 -0.94554,5.11331 -2.52115,11.41331 -3.50134,14 -1.92056,5.06831 -4.98892,6.9809 -4.98892,3.10974 0,-3.2318 -1.33044,-1.44673 -2.54368,3.41289 -0.785,3.14433 -1.59051,4.25965 -3.25,4.5 -1.81028,0.26219 -2.22514,-0.18656 -2.31117,-2.5 -0.0986,-2.65095 -0.17384,-2.5978 -1.25845,0.88889 -1.43642,4.61765 -3.00621,6.24748 -5.20475,5.40382 -1.44301,-0.55374 -1.60054,-1.52071 -1.0336,-6.34453 0.36789,-3.13018 1.3704,-8.10431 2.22779,-11.05363 0.85739,-2.94932 1.32183,-5.59946 1.0321,-5.88919 -0.28973,-0.28974 -1.03061,1.43113 -1.64638,3.82415 -2.56412,9.96464 -3.64515,12.35094 -5.59519,12.35094 -1.58921,0 -1.97022,-0.84758 -2.23008,-4.96098 -0.27789,-4.39878 2.36264,-18.92555 4.89656,-26.93824 0.50427,-1.59458 0.91685,-3.28208 0.91685,-3.75 0,-1.89194 -3.04425,-0.63426 -7.62279,3.14922 -4.99543,4.12799 -9.00784,5.12614 -10.01855,2.49228 -0.31821,-0.82925 0.0962,-2.53749 0.92084,-3.7961 2.35045,-3.58723 14.46382,-12.95559 22.8352,-17.6605 l 7.61469,-4.27964 3.67723,-10.87562 c 2.44873,-7.24227 4.45525,-16.1382 6.00607,-26.62801 2.2167,-14.99379 7.06915,-32.71821 9.8868,-36.11328 1.78099,-2.14596 3.26688,-6.47047 12.07366,-35.13913 4.76033,-15.49625 6.13263,-21.69128 7.08852,-32 0.33149,-3.575 1.29094,-10.1 2.1321,-14.5 4.4373,-23.210949 9.40748,-28.902499 26.7172,-30.594969 18.02766,-1.76266 23.7004,-3.4398 25.57876,-7.56235 1.92426,-4.2233 1.32618,-13.94234 -1.2721,-20.67212 -1.3103,-3.39381 -2.64778,-6.962234 -2.97217,-7.929835 -0.3244,-0.967602 -1.16093,-1.642602 -1.85896,-1.5 -2.03117,0.414948 -5.69936,-8.198456 -5.74528,-13.490725 -0.0371,-4.270829 0.18576,-4.750225 2.20878,-4.752231 2.1494,-0.0021 2.2572,-0.393349 2.41106,-8.75 0.29089,-15.799779 5.79205,-24.9125086 17.35828,-28.7541936 6.10361,-2.027292 16.93454,-1.603026 21.67643,0.84910201 8.71769,4.50808999 12.54204,12.19266259 13.11469,26.35236759 0.38426,9.501455 0.5578,10.215792 2.55092,10.5 1.79181,0.255502 2.12732,0.953613 2.06892,4.304955 -0.0947,5.436312 -3.2677,13.498091 -5.31616,13.507093 -1.12881,0.005 -2.28737,2.184842 -3.85323,7.249997 -2.98009,9.63989 -3.57692,15.25718 -2.22139,20.90764 0.97074,4.0465 1.62236,4.88223 4.792,6.14596 2.01766,0.80444 7.94348,1.98097 13.16848,2.6145 20.43855,2.47819 23.31401,3.59142 28.46115,11.018749 2.79927,4.03935 5.97427,15.62443 7.552,27.55606 0.58181,4.4 1.47507,11.15 1.98501,15 0.50993,3.85 2.96041,13.41799 5.44549,21.26221 2.48508,7.84421 5.16932,17.06921 5.96498,20.5 0.79566,3.43078 3.6719,11.18779 6.39166,17.23779 6.23011,13.85863 7.60375,18.67911 10.73221,37.6621 2.83835,17.22273 4.55336,24.18717 7.6434,31.03893 1.83978,4.07945 3.19135,5.32333 10.2221,9.40757 10.87111,6.31515 17.71176,11.598 19.96181,15.41598 3.69173,6.26425 -1.79218,6.57586 -9.42529,0.53556 -4.6557,-3.68419 -6.61256,-3.48182 -5.09613,0.52702 1.78167,4.71005 4.34383,19.83514 4.50155,26.57379 l 0.16006,6.83905 -2.7116,-0.18301 c -2.42734,-0.16382 -2.66037,0.0983 -2.22287,2.5 0.2688,1.47566 0.0393,3.35801 -0.50993,4.18301 -1.76799,2.65552 -4.4527,-0.21143 -5.70917,-6.0967 l -1.15358,-5.4033 -0.0964,4.28138 c -0.0673,2.9879 -0.5933,4.47206 -1.74104,4.91248 -2.43676,0.93508 -4.04059,-1.94869 -5.44056,-9.78244 -0.67934,-3.80128 -1.55853,-6.91142 -1.95377,-6.91142 -0.39524,0 -0.28255,2.0446 0.25042,4.54356 1.79422,8.41252 -1.07889,10.19029 -4.37395,2.70644 -2.35649,-5.35213 -7.39102,-26.51625 -8.34937,-35.09903 -0.82463,-7.38521 -3.18476,-13.39315 -12.63006,-32.15097 -7.8058,-15.50188 -16.84117,-37.73178 -16.86773,-41.5 -0.0253,-3.58506 -5.77451,-26.92047 -7.39122,-30 -0.86623,-1.65 -3.0429,-7.60898 -4.83706,-13.24217 -2.96824,-9.31949 -4.76211,-12.63132 -4.76211,-8.79176 0,0.80634 -0.6298,2.94384 -1.39956,4.75 -2.45639,5.76363 -4.71725,20.81817 -5.52416,36.78393 -0.86799,17.17446 -1.06371,15.96677 5.19213,32.03784 4.44439,11.4175 7.87853,23.49144 11.36627,39.96216 1.37182,6.47836 1.80769,13.13789 1.83262,28 0.0292,17.42551 -0.26475,20.98938 -2.76329,33.5 -1.5378,7.7 -5.47185,27.95 -8.74235,45 -3.27049,17.05 -6.6248,34.27529 -7.45401,38.27842 -1.99713,9.64148 -1.94662,25.76059 0.10522,33.57724 1.3273,5.05642 1.51056,9.50849 1.03503,25.14434 -0.58375,19.19467 -2.24714,31.73555 -6.63184,50 -4.31886,17.99016 -6.13354,29.28686 -6.98773,43.5 l -0.87144,14.5 3.42156,6.28442 c 3.71389,6.82136 4.32164,10.6562 1.83976,11.60859 -0.86998,0.33385 -6.66488,0.60699 -12.87755,0.60699 -13.81001,0 -14.12008,-0.23279 -13.85736,-10.40369 0.30643,-11.86341 1.00616,-24.66524 1.81446,-33.19624 0.75831,-8.00347 -0.32088,-23.57958 -4.15225,-59.92998 -1.45787,-13.83166 -1.45336,-15.86464 0.0567,-25.5 3.47413,-22.16836 3.60728,-25.59626 1.3161,-33.88321 -1.83206,-6.6264 -2.10525,-10.43531 -2.15794,-30.08688 -0.0332,-12.375 0.13787,-31.275 0.38012,-42 0.35793,-15.84626 0.10745,-21.28002 -1.33679,-29 -1.22281,-6.5363 -1.67218,-12.89708 -1.44046,-20.38916 0.28797,-9.31056 0.0953,-11.0418 -1.32938,-11.94201 -1.20061,-0.75867 -2.08544,-0.70489 -3.16667,0.19245 -1.2121,1.00595 -1.39728,3.01294 -0.96349,10.44201 0.39412,6.74965 -0.0273,12.67252 -1.58372,22.25974 -1.99628,12.29647 -2.08311,15.34791 -1.4797,52 0.58501,35.53431 0.48471,39.505 -1.14777,45.43697 -2.77257,10.07475 -2.83122,12.80803 -0.58696,27.35515 2.46802,15.99752 2.58231,22.85004 0.68048,40.79947 -2.86177,27.00922 -3.81367,42.59849 -3.22683,52.84538 0.33073,5.775 0.79884,15.76839 1.04022,22.20754 0.24139,6.43914 0.72012,12.59361 1.06385,13.67659 0.34372,1.08299 -0.0469,3.57709 -0.86811,5.54247 l -1.49307,3.5734 h -12.35102 c -8.27302,0 -12.74724,-0.39621 -13.55103,-1.2 z m 16.39274,-4.3 c 0.051,-1.65 -0.35061,-3.57337 -0.8925,-4.27417 -1.65625,-2.14194 0.18534,-2.6947 2.15405,-0.64654 1.45989,1.5188 1.63212,2.3972 0.82308,4.19784 -1.40581,3.12886 0.26859,4.61329 4.22379,3.74458 l 3.09884,-0.68062 v -7.22055 c 0,-4.28264 -0.48826,-7.7088 -1.2,-8.42054 -1.30961,-1.30961 -14.62577,-1.66472 -16.3,-0.43469 -0.55,0.40408 -1.15586,1.62511 -1.34636,2.71341 -0.52305,2.98812 -4.23436,9.85828 -6.04978,11.19898 -1.41693,1.04642 -1.31625,1.29187 0.86385,2.10599 1.35725,0.50684 5.18225,0.87536 8.5,0.81892 5.99139,-0.10191 6.03292,-0.12295 6.12503,-3.10261 z m -10.01853,-1.16722 c -0.35188,-0.91697 -0.17502,-2.13197 0.39301,-2.7 0.71037,-0.71037 1.03278,-0.18992 1.03278,1.66722 0,3.08485 -0.4995,3.44667 -1.42579,1.03278 z m 4.49608,-1.58278 c -0.0387,-2.0625 0.37971,-3.75 0.92971,-3.75 1.19413,0 1.19413,2.72111 0,5.5 -0.68942,1.60437 -0.87333,1.2582 -0.92971,-1.75 z m 42.84518,4.66786 c 0.23076,-0.23076 -0.0637,-1.99418 -0.65435,-3.91871 -0.59066,-1.92453 -0.68187,-3.49915 -0.2027,-3.49915 1.32176,0 2.94158,3.54886 2.94158,6.44472 v 2.57619 l 7.23676,-0.54722 c 7.85366,-0.59386 9.63439,-1.44129 7.53959,-3.58798 -1.36056,-1.39425 -3.7761,-6.12464 -5.66656,-11.09693 -0.75515,-1.9862 -1.95475,-2.85667 -4.62793,-3.35816 -4.12238,-0.77336 -11.28584,-0.0266 -12.62893,1.31645 -1.44748,1.44748 -1.9777,14.39767 -0.65475,15.99173 1.02712,1.23759 5.36607,1.03029 6.71729,-0.32094 z m 6.90587,-0.96711 c -1.2333,-2.15217 -1.80601,-6.45075 -0.85944,-6.45075 0.55,0 1.27751,1.10569 1.61669,2.45709 0.67017,2.6702 0.12674,5.53625 -0.75725,3.99366 z m 3.70988,-1.74388 c -0.42806,-0.98622 -0.4977,-2.07372 -0.15476,-2.41666 1.01549,-1.0155 1.83409,0.41094 1.3667,2.38152 -0.41435,1.74695 -0.46826,1.74851 -1.21194,0.0351 z m -39.21527,-20.47919 c 0.7875,-7.63019 -1.10804,-13.39446 -4.72257,-14.36114 -2.93581,-0.78515 -7.85172,-0.21691 -10.70976,1.23799 -2.02259,1.02959 -3.12668,7.58251 -2.31214,13.7228 l 0.61985,4.67267 h 8.29024 8.29023 z m 30.18405,4.30693 c 2.2,0.013 5.125,0.23552 6.5,0.4945 2.48382,0.46784 2.50187,0.41782 2.78965,-7.73008 0.2692,-7.62184 0.12796,-8.30175 -2,-9.62815 -3.21156,-2.00183 -8.35477,-2.78672 -11.19206,-1.70798 -3.14659,1.19633 -4.63819,5.93311 -4.33709,13.77298 0.22155,5.76854 0.38938,6.18114 2.2395,5.50549 1.1,-0.40171 3.8,-0.71976 6,-0.70676 z m -38.24925,-20.03022 6.75074,-0.004 0.0116,-9.5 c 0.011,-8.98481 1.33924,-26.22642 4.13447,-53.66738 0.99135,-9.73226 0.98721,-14.13522 -0.0207,-22 -1.94332,-15.1636 -3.86205,-27.95658 -4.0012,-26.67764 -0.0691,0.63524 -2.11829,2.32274 -4.55373,3.75 -7.82985,4.5886 -16.16486,3.03123 -20.87506,-3.90044 l -2.36048,-3.47376 -1.24947,5.23461 c -4.09427,17.1527 -1.46311,48.38229 6.88631,81.73461 1.03265,4.125 2.69667,12.56822 3.69782,18.76272 1.51117,9.35012 2.07574,11.13394 3.32462,10.50439 0.82738,-0.41708 4.54217,-0.7603 8.25508,-0.76272 z m 48.27721,-2.25439 c 1.52306,-9.23304 4.79398,-25.40922 6.57184,-32.50068 5.52986,-22.05733 8.34287,-56.54711 5.89529,-72.2809 -0.72455,-4.65763 -1.58236,-8.45868 -1.90623,-8.44678 -0.32387,0.0119 -1.26386,1.47014 -2.08886,3.24053 -0.825,1.77039 -3.075,4.26853 -5,5.55143 -2.90904,1.93869 -4.25758,2.21943 -7.98683,1.66268 -4.98512,-0.74425 -8.99036,-2.53895 -10.95845,-4.91034 -1.55126,-1.86916 -3.46446,-2.08524 -2.79747,-0.31594 0.25918,0.6875 -0.52614,8.3854 -1.74515,17.10644 -1.21901,8.72104 -2.11671,17.49604 -1.99489,19.5 0.23642,3.88921 2.86948,32.23665 4.49839,48.4294 0.54142,5.38222 0.98379,13.25722 0.98304,17.5 l -10e-4,7.71416 5.43197,-0.33853 c 2.98758,-0.18619 6.2507,0.13763 7.25136,0.7196 2.81716,1.63839 3.18453,1.38716 3.84736,-2.63107 z m 3.05208,-106.13568 c 4.70451,-2.86881 6.25908,-7.3548 7.35279,-21.21785 0.5379,-6.81806 1.44806,-13.9685 2.02259,-15.88987 1.50786,-5.04274 1.53842,-5.0066 -4.23363,-5.0066 -5.32483,0 -14.83673,3.81618 -22.22179,8.91539 -1.65,1.13929 -4.22889,2.0744 -5.73087,2.07802 -2.6662,0.006 -2.71811,0.11907 -2.19188,4.75659 0.29645,2.6125 1.26914,8.125 2.16155,12.25 1.31526,6.07959 2.26187,8.11286 4.99825,10.73602 5.41902,5.19479 12.62637,6.55939 17.84299,3.3783 z m -50.78038,-0.51931 c 1.48519,-0.77274 3.75382,-2.53286 5.0414,-3.91138 2.77418,-2.9701 6.15894,-14.98697 6.15894,-21.866 0,-4.61151 -0.11998,-4.81763 -2.80422,-4.81763 -1.54232,0 -4.93703,-1.35259 -7.5438,-3.00575 -7.40342,-4.69511 -16.12017,-7.99425 -21.12185,-7.99425 -2.49157,0 -4.52526,0.1125 -4.51931,0.25 0.006,0.1375 0.66063,2.39147 1.45483,5.00882 0.7942,2.61735 1.7282,9.36735 2.07556,15 0.76907,12.47079 1.7333,15.86184 5.61358,19.74212 2.52794,2.52795 3.78021,2.99906 7.97179,2.99906 2.73501,0 6.18789,-0.63224 7.67308,-1.40499 z m 10.75884,-33.77932 c 0.3813,-1.20137 0.3641,-16.25757 -0.0382,-33.45821 -0.68646,-29.34881 -0.59312,-32.23525 1.51639,-46.8915 2.69465,-18.72163 2.03609,-27.88189 -2.425,-33.73068 -1.43644,-1.88325 -2.61169,-3.90125 -2.61169,-4.48447 0,-1.39085 -14.55744,-17.70902 -24.58646,-27.56022 -7.99298,-7.85125 -17.96335,-15.47414 -18.94953,-14.48795 -0.2945,0.2945 -1.66504,5.86857 -3.04564,12.38682 -2.15826,10.18982 -2.5078,14.39432 -2.49323,29.9897 0.009,9.97608 0.45126,19.28062 0.98207,20.67675 0.5308,1.39614 0.75759,2.74593 0.50397,2.99955 -0.25362,0.25362 0.42014,4.68739 1.49724,9.85283 1.0771,5.16543 2.70742,13.66669 3.62293,18.89169 1.62404,9.26871 9.10494,49.40885 9.99121,53.60964 0.37604,1.78238 1.37655,2.19411 6.4495,2.65411 4.77706,0.43317 8.10201,1.67826 16.26618,6.09116 5.64397,3.05068 10.79394,5.56883 11.44437,5.59589 0.65044,0.0271 1.49459,-0.93374 1.87589,-2.13511 z m 23.49132,-1.29463 c 7.9946,-5.14493 14.41806,-7.7321 20.77922,-8.36922 l 6.50811,-0.65184 1.24795,-6.5 c 0.68637,-3.575 3.1012,-16.175 5.36627,-28 2.26508,-11.825 4.53064,-23.3 5.03458,-25.5 5.43453,-23.72485 7.24399,-47.0354 4.98173,-64.17764 -1.60336,-12.14945 -4.99727,-26.32375 -6.29977,-26.31031 -1.9301,0.0199 -9.36145,4.61049 -14.56095,8.99477 -8.6304,7.27727 -23.19085,25.35681 -27.97741,34.73924 -1.09086,2.13825 -2.6448,4.43667 -3.45321,5.10759 -2.78965,2.31521 -3.07071,16.96485 -0.63593,33.14635 1.94896,12.9527 2.10446,16.68756 1.45721,35 -0.39852,11.275 -0.87472,24.775 -1.05822,30 -0.18351,5.225 -0.0798,10.97612 0.23044,12.78026 0.47843,2.78212 0.88802,3.18498 2.69713,2.65278 1.17317,-0.34513 3.73045,-1.65552 5.68285,-2.91198 z M 418.29372,330.22948 c 1.25126,-4.25302 2.53064,-9.89116 2.84308,-12.52921 0.52921,-4.46829 1.70974,-6.64419 2.93828,-5.41565 0.28746,0.28745 -0.19248,3.98065 -1.06653,8.2071 -1.77125,8.56485 -2.05241,14.47052 -0.68892,14.47052 0.49514,0 1.45407,-2.3625 2.13096,-5.25 0.67688,-2.8875 1.5872,-5.70445 2.02292,-6.2599 0.43572,-0.55544 1.10991,-3.81794 1.49821,-7.25 0.48371,-4.27543 1.13758,-6.2401 2.07682,-6.2401 1.6737,0 1.66719,0.79004 -0.0734,8.90854 -0.75569,3.5247 -1.03247,7.33178 -0.61504,8.46018 0.63401,1.71389 1.0235,1.23508 2.36598,-2.90854 0.88387,-2.7281 2.32842,-8.78518 3.21013,-13.46018 0.8817,-4.675 2.25112,-11.81063 3.04314,-15.85696 0.792,-4.04633 1.44002,-7.97065 1.44002,-8.72071 0,-1.34961 -9.47859,-6.42233 -12.00039,-6.42233 -3.82896,0 -27.92863,16.13033 -30.06571,20.1235 -2.28141,4.26286 0.0635,3.84492 6.30357,-1.1235 5.19306,-4.13478 8.68821,-4.9994 10.65069,-2.63475 0.85488,1.03005 0.76369,2.07349 -0.37139,4.25 -0.82745,1.58661 -1.50722,3.70977 -1.51061,4.71814 -0.003,1.00836 -0.85879,5.28336 -1.9009,9.5 -2.59834,10.51354 -3.20931,16.16661 -1.74726,16.16661 1.00869,0 2.18921,-3.53145 6.51858,-19.5 l 0.81336,-3 1.3205,2.76087 c 1.13803,2.37938 1.02127,4.06352 -0.84497,12.18795 -2.26982,9.88133 -2.70814,14.55118 -1.3658,14.55118 0.43981,0 1.82342,-3.47974 3.07468,-7.73276 z m 244.66215,0.17856 c -0.38168,-3.05481 -1.56497,-8.69736 -2.62954,-12.53899 -1.44051,-5.19824 -1.66715,-7.48638 -0.88609,-8.94581 1.58187,-2.95575 2.84915,-2.359 2.73736,1.289 -0.12243,3.9953 2.96163,17.86986 4.26097,19.1692 0.52111,0.52111 1.23575,0.65918 1.5881,0.30684 0.60637,-0.60638 -1.53519,-15.97146 -3.58566,-25.72604 -2.50831,-11.93265 -2.57513,-11 0.78814,-11 1.71997,0 4.26249,1.01962 5.86349,2.35143 4.40336,3.66296 7.32673,5.00793 7.32673,3.37084 0,-2.15878 -9.42603,-9.9963 -16.9998,-14.13493 -7.66117,-4.18638 -8.5864,-4.57524 -10.90029,-4.58118 -3.43617,-0.009 -13.09919,5.11833 -13.10369,6.95275 -0.0152,6.21112 7.53433,39.63292 9.18267,40.65165 1.58549,0.97989 1.71799,0.08 0.68014,-4.61935 -0.54552,-2.47016 -1.42644,-6.46425 -1.95759,-8.87574 -0.53115,-2.41148 -0.79067,-4.55958 -0.57671,-4.77353 1.15802,-1.15802 3.54121,1.21538 3.99252,3.97611 0.89772,5.49151 3.37801,15.05702 4.71448,18.18195 1.88609,4.41002 2.35956,1.02916 1.04364,-7.45218 -1.2932,-8.33486 -1.37587,-13.04782 -0.22888,-13.04782 0.75987,0 2.5554,6.50594 5.19314,18.81682 1.07049,4.9962 1.67224,6.18318 3.13461,6.18318 0.69813,0 0.82094,-1.88301 0.36226,-5.5542 z m -115.33299,-24.9458 c 2.08253,-2.75 3.78868,-5.28125 3.79145,-5.625 0.0154,-1.908 -18.92783,-2.61142 -23.50108,-0.87267 l -2.63632,1.00233 3.82122,4.93593 c 4.13246,5.33797 4.81388,5.69276 10.77977,5.6126 3.5541,-0.0478 4.3454,-0.56404 7.74496,-5.05319 z m -9.20351,-9 c 4.675,0 9.85,0.33374 11.5,0.74163 2.79926,0.69201 3.2341,0.3909 6.49849,-4.5 5.3569,-8.02599 23.63966,-25.7867 30.00151,-29.14483 3.025,-1.59676 5.63813,-3.00989 5.80696,-3.14029 0.16882,-0.1304 -0.69536,-3.68666 -1.92041,-7.9028 l -2.22737,-7.66572 -2.31833,2.50022 c -5.5803,6.0181 -13.19342,10.00535 -25.34085,13.27186 -8.95586,2.40828 -34.57845,2.40438 -44.39955,-0.007 -9.22392,-2.26453 -18.49856,-6.80877 -22.68077,-11.11275 -1.88083,-1.93559 -3.6834,-3.52405 -4.00573,-3.5299 -0.32233,-0.006 -1.3056,2.57685 -2.18506,5.73935 -0.87945,3.1625 -1.8685,6.45182 -2.19788,7.3096 -0.4206,1.09536 0.86409,2.50756 4.31584,4.74422 6.13747,3.97695 21.86238,18.86608 29.15315,27.60366 5.1327,6.15125 5.70035,6.5414 8.5,5.84198 1.65,-0.4122 6.825,-0.74946 11.5,-0.74946 z M 441.9704,280.49436 c 1.88597,-4.51378 1.88153,-4.53212 -1.09934,-4.53212 -1.40156,0 -4.40467,-0.8969 -6.67356,-1.99311 -2.26889,-1.0962 -4.26746,-1.85089 -4.44127,-1.67708 -0.17382,0.17381 -0.60196,1.74571 -0.95144,3.49311 -0.53253,2.66265 -0.33182,3.17974 1.23958,3.19353 1.03125,0.009 3.675,1.09163 5.875,2.40574 2.2,1.31411 4.13546,2.4317 4.30103,2.48355 0.16556,0.0518 0.95306,-1.46629 1.75,-3.37362 z m 205.31779,-1.53212 c 2.80377,0 3.16455,-1.00904 1.38179,-3.86462 -0.90491,-1.44946 -1.69968,-2.74108 -1.76616,-2.87026 -0.0665,-0.12918 -1.87283,0.65832 -4.01411,1.75 -2.14127,1.09168 -4.97122,1.98488 -6.28877,1.98488 -1.78063,0 -2.23864,0.40889 -1.78429,1.5929 0.33619,0.8761 0.8803,2.66489 1.20914,3.9751 l 0.5979,2.3822 4.43332,-2.4751 c 2.43833,-1.36131 5.24236,-2.4751 6.23118,-2.4751 z m -195.04706,-20.25 c 9.50773,-19.28412 15.0984,-33.28028 15.85906,-39.70286 0.62783,-5.301 -1.99695,-11.7543 -5.88994,-14.48106 -3.06618,-2.14763 -10.99022,-2.04127 -13.70196,0.18392 -2.63229,2.15999 -8.54635,19.43432 -9.50052,27.75 -1.34717,11.74063 -3.79547,24.78875 -5.67791,30.26016 -1.05077,3.05412 -1.91049,6.16863 -1.91049,6.92114 0,1.59128 6.32337,4.30497 12.15498,5.21634 0.36024,0.0563 4.26029,-7.21014 8.66678,-16.14764 z m 190.17824,13.37268 c 2.11842,-1.00438 3.36277,-2.24427 3.15235,-3.14105 -0.19121,-0.8149 -1.19327,-4.85663 -2.22681,-8.98163 -1.03353,-4.125 -2.77581,-13.43828 -3.87174,-20.69618 -2.84592,-18.84742 -7.95758,-34.11159 -12.18003,-36.37137 -6.45909,-3.45681 -18.87377,4.12972 -18.87377,11.53362 0,1.90634 0.61623,4.94384 1.3694,6.75 0.75316,1.80616 1.92823,4.85893 2.61126,6.78393 3.70992,10.45582 5.13633,13.75677 11.8833,27.5 4.05018,8.25 7.75548,16.02288 8.23402,17.27306 0.97774,2.5544 3.49071,2.38934 9.90202,-0.65038 z m -80.5,-13.67143 c 8.49225,-2.31725 15.60394,-5.88433 20.63784,-10.35152 l 4.3382,-3.84982 -2.19847,-6.37495 c -1.20915,-3.50623 -2.8933,-8.29981 -3.74255,-10.6524 -2.35631,-6.52747 -0.80891,-35.80716 2.50258,-47.35366 1.58466,-5.52541 1.21832,-5.9823 -2.67715,-3.33876 -2.48197,1.68431 -5.01447,2.46986 -7.96248,2.46986 -5.78194,0 -14.93758,-3.48913 -20.09939,-7.65969 -9.87478,-7.97846 -16.01637,-8.57343 -25.15304,-2.43669 -11.89524,7.98956 -15.28797,9.86309 -18.88446,10.42838 -4.5563,0.71616 -10.7717,-0.57914 -13.16293,-2.74318 -0.9656,-0.87385 -1.99998,-1.58882 -2.29862,-1.58882 -0.29865,0 0.28391,3.4875 1.29458,7.75 1.01067,4.2625 1.85295,9.40297 1.87174,11.42327 0.0228,2.45708 0.89132,4.69196 2.62304,6.75 3.85792,4.58488 10.51154,4.34633 22.7121,-0.81428 14.98288,-6.33748 20.02573,-6.28945 34.01983,0.32404 9.55348,4.51489 15.03016,5.26389 19.92918,2.72556 4.26242,-2.20849 5.10076,-1.08975 1.13203,1.51066 -4.43084,2.9032 -10.76046,2.16842 -21.68439,-2.51726 -15.14974,-6.49829 -19.50173,-6.48747 -33.59109,0.0835 -8.09894,3.77717 -16.88383,4.79568 -20.56425,2.38418 -1.35956,-0.89082 -2.71277,-1.61967 -3.00712,-1.61967 -0.29435,0 -0.53518,4.93944 -0.53518,10.97653 0,10.15251 -0.26974,11.69659 -3.59316,20.56831 -3.50987,9.36942 -3.55044,9.63927 -1.75,11.63987 5.43336,6.03743 15.90655,10.98541 28.19761,13.32175 9.82633,1.86783 33.09375,1.27828 41.64555,-1.05521 z m -25.5,-29.89223 c 0,-2.03936 1.95984,-2.99918 3.32877,-1.63025 0.87268,0.87268 0.79038,1.38472 -0.33713,2.09756 -2.11015,1.33408 -2.99164,1.19639 -2.99164,-0.46731 z m -62.04008,-36.55902 c 0.022,-0.275 -3.07222,-0.5 -6.87614,-0.5 -5.55395,0 -7.50136,-0.43261 -9.88697,-2.19637 -3.24523,-2.3993 -4.19681,-2.12402 -4.19681,1.2141 0,1.20141 -1.05252,4.16391 -2.33894,6.58333 l -2.33894,4.39894 h 6.25838 c 5.28641,0 6.67916,0.38826 8.96781,2.5 1.4902,1.375 3.39318,4.075 4.22884,6 l 1.5194,3.5 2.31165,-10.5 c 1.2714,-5.775 2.32968,-10.725 2.35172,-11 z m 136.11577,14.36416 c 3.59803,-3.91196 10.41591,-6.68212 14.54121,-5.90821 l 3.41213,0.64012 -2.01078,-3.29803 c -1.10592,-1.81392 -2.01246,-4.53554 -2.01451,-6.04804 -0.005,-3.31101 -0.27158,-3.35119 -3.99197,-0.60058 -2.56075,1.89325 -3.75817,2.07808 -10.04698,1.55085 -6.30005,-0.52818 -7.06699,-0.40899 -6.52116,1.01344 0.34023,0.8866 1.14619,4.68872 1.79103,8.44915 0.64484,3.76043 1.4524,6.83714 1.79458,6.83714 0.34217,0 1.71307,-1.18613 3.04645,-2.63584 z m 9.7018,-16.92086 c 2.86107,-2.00397 2.80489,-2.97075 -0.86834,-14.9433 -6.50808,-21.21247 -7.86916,-26.30843 -8.53119,-31.94124 l -0.68439,-5.82313 -6.59679,-2.85913 c -3.62823,-1.57251 -8.67497,-3.95478 -11.21498,-5.29393 l -4.61821,-2.43482 0.23207,7.67613 c 0.14214,4.70168 1.05028,10.00108 2.34362,13.67612 1.16135,3.3 2.12261,7.67839 2.13613,9.72976 0.0135,2.05137 0.66553,5.42637 1.44891,7.5 0.78338,2.07363 2.61725,7.59524 4.07527,12.27024 4.11596,13.19748 4.53002,13.57946 15.0279,13.86382 3.12839,0.0847 5.86704,-0.45186 7.25,-1.42052 z m -147.86014,-0.0768 c 3.52654,-0.70531 3.70986,-1.03697 9.55186,-17.28092 1.94194,-5.39964 3.53079,-11.6607 3.53079,-13.91347 0,-2.25277 1.11926,-7.60059 2.48723,-11.88404 2.30158,-7.20677 3.36356,-18.10398 1.90632,-19.56122 -0.33355,-0.33354 -1.42412,0.15396 -2.4235,1.08334 -0.99937,0.92938 -5.33897,2.98276 -9.64355,4.56308 -9.26376,3.40095 -11.3265,4.98833 -11.3265,8.71631 0,4.57561 -2.64561,15.63693 -6.94686,29.04496 -2.22923,6.94904 -4.05314,13.30979 -4.05314,14.13502 0,3.90286 9.13167,6.65411 16.91735,5.09697 z M 511.86937,175.83 c 0.5225,-0.47727 1.59035,-0.86776 2.37301,-0.86776 0.78265,0 4.18015,-1.96083 7.55,-4.35741 14.32683,-10.18898 19.00283,-10.21235 32.17109,-0.16079 9.10535,6.95027 22.74504,8.48955 28.27556,3.19098 1.49939,-1.43651 4.01578,-5.0768 5.59199,-8.08955 3.36834,-6.43818 3.23655,-9.6205 -0.86402,-20.86354 -2.3,-6.30621 -3.17058,-7.53831 -6.84149,-9.68254 -5.24788,-3.06535 -12.5654,-3.09557 -25.16186,-0.10392 -11.16602,2.65193 -21.09556,2.62538 -32.21532,-0.0861 -12.50547,-3.04941 -20.79789,-2.88868 -25.92224,0.50245 -3.51753,2.32779 -4.31312,3.62887 -6.69914,10.95552 -3.42044,10.50298 -3.44866,15.1171 -0.12879,21.057 2.87636,5.14635 7.07318,8.5811 11.78589,9.64575 3.47105,0.78415 8.6154,0.20263 10.08532,-1.14005 z m -14.74441,-42.47653 c 3.59719,-2.47318 4.2622,-2.57893 12.79441,-2.03465 4.95,0.31576 11.7,1.31674 15,2.2244 8.17402,2.24825 19.17452,2.08108 30.23941,-0.45952 13.86838,-3.18431 22.59935,-2.66305 27.08202,1.61688 2.38853,2.2805 3.17666,1.33325 3.31835,-3.98834 0.4798,-18.02111 -2.59753,-24.90683 -12.84467,-28.74077 -4.84914,-1.8143 -6.10091,-1.94916 -8.25547,-0.8894 -1.3968,0.68705 -6.24347,1.52957 -10.77037,1.87226 -6.54917,0.49579 -8.70752,1.071 -10.56446,2.8155 -3.07921,2.89277 -7.2229,2.7757 -10.88718,-0.30759 -2.16051,-1.81795 -4.14353,-2.5 -7.26863,-2.5 -2.36365,0 -6.17524,-0.66249 -8.47021,-1.4722 -3.71288,-1.30998 -4.69088,-1.29865 -8.87572,0.10281 -12.22024,4.09243 -16.14341,11.50152 -15.41895,29.11939 0.11873,2.8875 0.4209,5.25 0.67147,5.25 0.25058,0 2.16308,-1.17395 4.25,-2.60877 z m -22.35485,-1.55332 c 2.6679,-1.04847 7.03444,-3.01288 9.70341,-4.36535 4.20104,-2.12883 4.93739,-2.96352 5.48348,-6.2158 1.75026,-10.42398 7.53253,-18.38586 14.77981,-20.35103 2.30041,-0.62378 4.85756,-1.359739 5.68256,-1.635479 0.825,-0.27573 -2.775,-1.59022 -8,-2.92107 -20.6197,-5.25202 -28.22326,0.42874 -32.99449,24.650819 -1.13755,5.775 -2.24632,11.32305 -2.46393,12.32899 -0.30011,1.38734 0.009,1.6583 1.28138,1.12211 0.92237,-0.38878 3.85987,-1.56472 6.52778,-2.61319 z m 134.18499,-5.97268 c -3.89927,-22.36004 -9.13984,-29.978519 -21.63145,-31.446659 -4.43209,-0.52091 -6.81524,-0.19385 -11.78104,1.61676 l -6.22504,2.26977 5.9855,2.872759 c 5.399,2.59127 6.28586,3.47385 9.0509,9.00717 1.68597,3.37393 3.0654,7.55153 3.0654,9.28356 0,1.73203 0.5625,3.89818 1.25,4.81366 1.04204,1.38758 20.71003,10.72165 21.5053,10.20602 0.14041,-0.091 -0.40839,-3.97141 -1.21957,-8.62304 z M 542.46443,103.7708 c 2.24509,-1.65986 4.96417,-2.34188 11.20951,-2.81166 5.63436,-0.42382 9.98711,-1.416089 13.74543,-3.133479 3.025,-1.38229 6.57316,-2.95193 7.88479,-3.48809 2.03173,-0.83052 1.2494,-1.15136 -5.28426,-2.16712 -11.07968,-1.72252 -13.19009,-3.06716 -14.51579,-9.24866 -0.59909,-2.79349 -0.80049,-6.96468 -0.44754,-9.26931 l 0.64173,-4.19024 -2.38946,2.13303 c -4.16686,3.71967 -8.58046,5.36697 -14.37965,5.36697 -5.70777,0 -11.86426,-2.31229 -14.44916,-5.42691 -2.25032,-2.71147 -2.98611,-1.7398 -2.40572,3.17691 0.72023,6.10133 -1.09285,12.87881 -3.83835,14.34816 -1.16351,0.62269 -5.96934,1.9124 -10.67962,2.86602 l -8.56414,1.73386 5.45411,1.30842 c 2.99976,0.71963 7.70838,2.35818 10.46359,3.64121 2.94361,1.37077 6.90734,2.336819 9.61159,2.342559 3.24916,0.007 5.60104,0.71956 8,2.42413 4.29811,3.05402 6.24115,3.13106 9.94294,0.3942 z m 4.95494,-30.412009 c 7.61862,-4.15236 10.94869,-10.4812 13.55249,-25.756654 2.44772,-14.359848 1.72901,-30.463384 -1.65759,-37.139896 -3.67098,-7.2371686 -8.68113,-10.43076959 -17.52736,-11.17240559 -9.0592,-0.75949101 -15.60633,1.283771 -20.64045,6.44158399 -4.89231,5.0125196 -6.68323,10.6458156 -7.40721,23.2992236 -0.71131,12.432072 0.765,22.337034 4.2937,28.807551 1.31253,2.406774 2.38642,5.016577 2.38642,5.799567 0,1.65428 5.36552,7.17381 9,9.25832 5.43296,3.11601 12.78505,3.30501 18,0.46271 z M 532.13295,60.160836 c -2.79387,-1.253337 -3.71133,-2.222861 -3.5,-3.698595 0.25272,-1.764707 1.16738,-2.035131 7.77464,-2.298618 4.11853,-0.16424 8.50603,-0.04317 9.75,0.269052 2.83641,0.711893 3.01564,4.155524 0.26178,5.029566 -1.1,0.349126 -2,1.054451 -2,1.56739 0,1.53607 -8.22157,0.95471 -12.28642,-0.868795 z m 13.53642,-1.875209 c 2.46512,-1.450872 -0.25751,-2.323386 -7.25,-2.323386 -7.57695,0 -10.7931,1.36589 -5.75,2.442013 1.2375,0.264065 3.15,0.674679 4.25,0.912475 1.99783,0.431889 7.33235,-0.196733 8.75,-1.031102 z m -10.92738,-9.985212 c -4.18462,-0.880679 -4.85672,-2.978587 -2.47928,-7.738936 1.18616,-2.375065 2.15666,-5.901411 2.15666,-7.836325 0,-4.212934 2.33253,-6.672812 4.83382,-5.097741 0.9164,0.577057 1.79006,1.900962 1.94147,2.942011 0.47664,3.277274 2.5377,9.852828 3.39859,10.842817 1.25146,1.439123 0.99003,4.169074 -0.51919,5.421617 -1.62831,1.351375 -6.35204,2.093722 -9.33207,1.466557 z m 4.27366,-4.080212 c 4.38351,0.494085 5.68212,-0.579565 3.42773,-2.833949 -0.53679,-0.536792 -1.32975,-3.434182 -1.76214,-6.438642 -0.54348,-3.776482 -1.27792,-5.557363 -2.37933,-5.769476 -1.23314,-0.23748 -1.73162,0.862007 -2.20573,4.865126 -0.3369,2.84457 -1.29693,6.21645 -2.1334,7.493066 -0.88728,1.354158 -1.22541,3.071986 -0.81168,4.123517 0.6737,1.712221 0.72798,1.708878 1.08501,-0.0668 0.31798,-1.581516 1.05359,-1.792806 4.77954,-1.372838 z m -18.84628,-9.650008 c -5.45643,-4.14202 4.12974,-9.89375 11.66821,-7.000965 2.03408,0.78055 2.04017,4.791769 0.0104,6.821582 -1.92885,1.92885 -9.22628,2.040938 -11.67857,0.179383 z m 10.09839,-0.493094 c 0.74162,-0.469983 1.18788,-1.700592 0.99169,-2.734687 -0.6634,-3.496656 -10.84008,-2.769557 -10.84008,0.774496 0,2.098704 7.32823,3.55729 9.84839,1.960191 z m 13.60359,-0.547802 c -2.51905,-3.844552 -0.50848,-6.570709 4.8332,-6.553403 8.43573,0.02733 11.11995,2.192904 8.21445,6.62725 -1.27985,1.953303 -2.39786,2.359095 -6.49963,2.359095 -4.14426,0 -5.21443,-0.397626 -6.54802,-2.432942 z m 9.35049,0.788935 c 1.63513,-0.437957 2.2148,-1.231045 2,-2.736345 -0.24313,-1.703786 -1.10421,-2.17841 -4.38894,-2.419155 -4.83912,-0.354671 -7.51342,1.769298 -5.41353,4.299507 1.31462,1.58402 3.98894,1.877415 7.80247,0.855993 z M 512.06,44.362469 c -1.21018,-6.867068 -1.52049,-7.57616 -2.37287,-5.422191 -1.00884,2.549366 -0.19376,7.475499 1.94756,11.770456 1.80408,3.618521 1.9081,2.065764 0.42531,-6.348265 z m 53.28747,3.849772 c 1.50811,-5.626238 1.71069,-10.482946 0.45589,-10.929858 -0.65276,-0.232491 -1.3903,1.382695 -1.77681,3.891189 -0.36344,2.358768 -0.92381,5.751169 -1.24528,7.538669 -0.82481,4.586364 1.31453,4.169532 2.5662,-0.5 z"
     id="OutLine"
     transform="matrix(0.26458333,0,0,0.26458333,13.223812,31.669302)"
     inkscape:label="Out Line" /><g
     id="FrontHandRight"
     inkscape:label="Front Hand Right"><path
       style="fill:#ff0000;stroke-width:0.736561"
       d="m 92.070184,447.59637 c 0,-2.5943 1.561815,-9.73362 4.081288,-18.65626 1.401271,-4.96256 2.547765,-9.91625 2.547765,-11.00819 0,-2.19541 -1.838373,-3.36807 -3.334083,-2.12674 -1.329112,1.10307 -3.684332,7.20162 -6.232073,16.13718 -2.155824,7.56101 -3.169086,9.65807 -4.17876,8.64839 -1.420509,-1.42051 3.971009,-22.90491 8.34968,-33.27226 2.726777,-6.45616 2.932904,-8.21759 1.032234,-8.82084 -2.889802,-0.91719 -10.296,1.65194 -12.533233,4.34764 -1.17856,1.42008 -4.464047,1.54071 -4.464047,0.1639 0,-2.32496 14.505738,-12.12935 24.189225,-16.34942 4.61193,-2.00989 5.82682,-2.26199 8.26291,-1.71464 3.9229,0.88142 10.54542,4.10105 12.87348,6.25863 1.82818,1.69429 1.90244,2.04277 1.43648,6.74101 -0.89728,9.04741 -3.1615,18.09128 -7.31972,29.23685 -2.26215,6.06341 -4.48025,11.36665 -4.92911,11.78498 -1.38997,1.29544 -0.20228,-9.84716 1.51166,-14.18204 1.8847,-4.76676 1.90328,-5.3128 0.18075,-5.3128 -1.61605,0 -3.79697,2.21764 -3.79697,3.86089 0,1.20395 -5.10703,18.4717 -6.55016,22.14722 -0.44698,1.13843 -1.10699,1.88799 -1.46667,1.66569 -0.82081,-0.50728 0.66216,-8.26158 3.24994,-16.99366 1.0805,-3.64598 1.9736,-7.43184 1.98466,-8.41301 0.0251,-2.22148 -2.20507,-4.06058 -3.56017,-2.93595 -1.02753,0.85278 -3.735408,8.74931 -6.165008,17.97801 -0.85321,3.24087 -2.061476,7.30117 -2.685037,9.02288 -1.164671,3.21577 -2.485031,4.16819 -2.485031,1.79254 z"
       id="path8748"
       transform="scale(0.26458333)" /><path
       style="fill:#ff0000;stroke-width:0.736561"
       d="m 464.77613,455.37913 c 0.003,-0.91149 0.83184,-5.62732 1.8414,-10.4796 2.1699,-10.42927 2.23884,-12.2149 0.5921,-15.33663 l -1.24347,-2.35725 -1.01813,3.68281 c -2.97251,10.75227 -5.64538,18.78232 -6.25185,18.78232 -1.12382,0 2.6479,-20.00341 5.30074,-28.11262 1.23752,-3.78285 1.25954,-4.32579 0.23481,-5.7888 -1.67988,-2.39837 -5.09528,-1.51854 -11.42984,2.9444 -5.29449,3.73017 -7.44763,3.85071 -4.13074,0.23125 4.9004,-5.34743 25.41068,-18.62385 28.77134,-18.62385 1.75874,0 7.82446,2.76384 10.40623,4.7416 1.30091,0.99655 1.26562,1.48373 -0.97278,13.42988 -2.7024,14.42247 -5.67848,26.82699 -6.67616,27.82678 -1.03251,1.03469 -0.87593,-1.95771 0.49259,-9.41413 0.92039,-5.01474 0.99374,-6.70191 0.3202,-7.36561 -1.34368,-1.32405 -2.81415,1.20465 -3.39255,5.834 -0.27159,2.1737 -1.58786,7.35702 -2.92505,11.51847 l -2.43125,7.56628 -0.0629,-3.68281 c -0.0346,-2.02554 0.43337,-6.50015 1.03993,-9.94358 1.37998,-7.83418 1.389,-9.5753 0.0496,-9.5753 -1.23024,0 -1.44739,0.61226 -3.00417,8.47046 -1.15216,5.81583 -4.61038,17.30919 -5.20813,17.30919 -0.16928,0 -0.30516,-0.74576 -0.30195,-1.65726 z"
       id="path8750"
       transform="scale(0.26458333)" /></g></svg>
